<svg width="47" height="44" viewBox="0 0 47 44" fill="none" xmlns="http://www.w3.org/2000/svg">
<path d="M9.69494 11.4383C10.9514 11.0219 11.2656 9.67858 11.2656 9.05895L17.796 12.5537L17.548 16.792L10.9349 11.5871L9.69494 11.4383Z" fill="#1383E9"/>
<path d="M37.4701 11.4383C36.2136 11.0219 35.8995 9.67858 35.8995 9.05895L29.369 12.5537L29.617 16.792L36.2302 11.5871L37.4701 11.4383Z" fill="#1383E9"/>
<path d="M37.4701 32.2581C36.2136 32.6745 35.8995 34.0178 35.8995 34.6375L29.369 31.1427L29.617 26.9045L36.2302 32.1094L37.4701 32.2581Z" fill="#1383E9"/>
<path d="M9.69493 32.2581C10.9514 32.6745 11.2655 34.0178 11.2655 34.6375L17.796 31.1427L17.548 26.9045L10.9349 32.1094L9.69493 32.2581Z" fill="#1383E9"/>
<path fill-rule="evenodd" clip-rule="evenodd" d="M18.5198 11.1409C18.5198 9.58042 19.7848 8.31539 21.3453 8.31539H25.8066C27.3671 8.31539 28.6322 9.58042 28.6322 11.1409V32.7041C28.6322 34.2646 27.3671 35.5297 25.8066 35.5297H21.3453C19.7848 35.5297 18.5198 34.2646 18.5198 32.7041V11.1409ZM27.0607 14.1582C27.2453 14.129 27.3727 13.9552 27.3274 13.7739C27.1326 12.9932 26.6982 12.2897 26.0811 11.7648C25.3777 11.1665 24.4834 10.8397 23.56 10.8435C22.6366 10.8473 21.745 11.1815 21.0466 11.7856C20.4338 12.3156 20.0052 13.0227 19.8169 13.8049C19.7731 13.9866 19.902 14.1594 20.0868 14.1871C20.2716 14.2148 20.4421 14.0867 20.4892 13.9059C20.6514 13.2834 20.9988 12.7216 21.4893 12.2974C22.0655 11.7991 22.801 11.5234 23.5628 11.5203C24.3246 11.5171 25.0623 11.7867 25.6426 12.2803C26.1366 12.7004 26.4887 13.2593 26.656 13.8804C26.7046 14.0608 26.8761 14.1875 27.0607 14.1582ZM27.3274 15.6462C27.3727 15.4649 27.2453 15.291 27.0607 15.2618C26.8761 15.2326 26.7046 15.3592 26.656 15.5397C26.4887 16.1608 26.1366 16.7196 25.6426 17.1398C25.0623 17.6333 24.3246 17.9029 23.5628 17.8998C22.801 17.8966 22.0655 17.621 21.4893 17.1226C20.9988 16.6984 20.6514 16.1367 20.4892 15.5142C20.4421 15.3334 20.2716 15.2053 20.0868 15.233C19.902 15.2607 19.7731 15.4335 19.8169 15.6152C20.0052 16.3974 20.4338 17.1045 21.0466 17.6345C21.745 18.2385 22.6366 18.5727 23.56 18.5765C24.4834 18.5803 25.3777 18.2536 26.0811 17.6553C26.6982 17.1304 27.1326 16.4268 27.3274 15.6462Z" fill="#1383E9"/>
<path d="M8.20608 11.4356L6.97966 10.5044L5.18887 11.7179L0.5 17.4086L1.72641 18.3399L7.17651 13.2272L8.20608 11.4356Z" fill="#1383E9"/>
<path d="M9.78301 7.10739L11.0326 8.01341L12.7923 6.76365L17.3366 0.978845L16.087 0.0728283L10.7672 5.29527L9.78301 7.10739Z" fill="#1383E9"/>
<path d="M10.4197 9.22962C10.4197 10.1047 9.71031 10.8141 8.83523 10.8141C7.96014 10.8141 7.25075 10.1047 7.25075 9.22962C7.25075 8.35454 7.96014 7.64515 8.83523 7.64515C9.71031 7.64515 10.4197 8.35454 10.4197 9.22962Z" fill="#1383E9"/>
<path d="M38.7939 11.3628L40.0203 10.4315L41.8111 11.6451L46.5 17.3358L45.2736 18.267L39.8235 13.1544L38.7939 11.3628Z" fill="#1383E9"/>
<path d="M37.217 7.03456L35.9674 7.94058L34.2077 6.69082L29.6634 0.906016L30.913 0L36.2328 5.22245L37.217 7.03456Z" fill="#1383E9"/>
<path d="M36.5803 9.1568C36.5803 10.0319 37.2897 10.7413 38.1648 10.7413C39.0399 10.7413 39.7493 10.0319 39.7493 9.1568C39.7493 8.28171 39.0399 7.57232 38.1648 7.57232C37.2897 7.57232 36.5803 8.28171 36.5803 9.1568Z" fill="#1383E9"/>
<path d="M8.50672 32.1938L7.28031 33.1251L5.48952 31.9115L0.800654 26.2208L2.02707 25.2895L7.47716 30.4022L8.50672 32.1938Z" fill="#1383E9"/>
<path d="M10.0837 36.5221L11.3332 35.6161L13.093 36.8658L17.6373 42.6506L16.3877 43.5566L11.0678 38.3342L10.0837 36.5221Z" fill="#1383E9"/>
<path d="M10.7204 34.3998C10.7204 33.5247 10.011 32.8153 9.13587 32.8153C8.26079 32.8153 7.5514 33.5247 7.5514 34.3998C7.5514 35.2749 8.26079 35.9843 9.13587 35.9843C10.011 35.9843 10.7204 35.2749 10.7204 34.3998Z" fill="#1383E9"/>
<path d="M38.6608 32.1938L39.8872 33.1251L41.678 31.9115L46.3669 26.2208L45.1404 25.2895L39.6903 30.4022L38.6608 32.1938Z" fill="#1383E9"/>
<path d="M37.0838 36.5221L35.8343 35.6161L34.0745 36.8658L29.5302 42.6506L30.7798 43.5566L36.0997 38.3342L37.0838 36.5221Z" fill="#1383E9"/>
<path d="M36.4472 34.3998C36.4472 33.5247 37.1565 32.8153 38.0316 32.8153C38.9067 32.8153 39.6161 33.5247 39.6161 34.3998C39.6161 35.2749 38.9067 35.9843 38.0316 35.9843C37.1565 35.9843 36.4472 35.2749 36.4472 34.3998Z" fill="#1383E9"/>
</svg>
