<svg width="96" height="102" viewBox="0 0 96 102" fill="none" xmlns="http://www.w3.org/2000/svg">
<path d="M47.3424 97.3814L32.361 97.4348L54.9511 31.2287L72.9677 31.1646L96 97.2087L81.0183 97.2615L64.2721 46.3062L63.7555 46.3081L47.3424 97.3814ZM46.3128 71.3935L81.7002 71.2674L81.7394 82.1809L46.352 82.3065L46.3128 71.3935Z" fill="#1384EC"/>
<path fill-rule="evenodd" clip-rule="evenodd" d="M29.8919 0L0 27.6017V46.003L29.8919 18.4011L49.7094 35.2204L54.3535 21.6526L29.8919 0Z" fill="white"/>
<path fill-rule="evenodd" clip-rule="evenodd" d="M29.8919 27.6016L0 55.2033V73.6044L29.8919 46.0027L41.6852 58.6643L46.7274 43.9332L29.8919 27.6016Z" fill="white"/>
<path fill-rule="evenodd" clip-rule="evenodd" d="M29.8919 55.2034L0 82.8052V101.206L29.8919 73.6044L35.0726 77.9814L38.8438 66.9635L29.8919 55.2034Z" fill="white"/>
</svg>
