<svg width="168" height="117" viewBox="0 0 168 117" fill="none" xmlns="http://www.w3.org/2000/svg">
<g clip-path="url(#clip0_33_426)">
<path d="M71.2501 76.375H95L63.3335 117.5H39.5834L71.2501 76.375Z" fill="white"/>
<path d="M31.6667 76.375H55.4167L23.75 117.5H0L31.6667 76.375Z" fill="white"/>
<path d="M13.8542 0H13.8542C11.6681 0 9.89587 1.20556 9.89587 2.6927V18.849C9.89587 20.3361 11.6681 21.5417 13.8542 21.5417H13.8542C16.0403 21.5417 17.8125 20.3361 17.8125 18.849V2.6927C17.8125 1.20556 16.0403 0 13.8542 0Z" fill="white"/>
<path d="M40.5729 0H40.5729C38.9333 0 37.6041 1.20556 37.6041 2.6927V18.849C37.6041 20.3361 38.9333 21.5417 40.5729 21.5417C42.2125 21.5417 43.5416 20.3361 43.5416 18.849V2.6927C43.5416 1.20556 42.2125 0 40.5729 0Z" fill="white"/>
<path fill-rule="evenodd" clip-rule="evenodd" d="M1.56484e-06 68.3898V34.5808C1.56484e-06 34.5808 -0.035721 26.2703 10.6875 23.3112C21.4107 20.3522 32.0463 20.5068 42.75 23.3112C53.4536 26.1157 53.4375 34.5808 53.4375 34.5808V68.3898C53.4375 68.3898 53.4375 74.0245 42.75 74.0245H10.6875C1.52886e-06 74.0245 1.56484e-06 68.3898 1.56484e-06 68.3898ZM23.5125 38.0701C23.5125 33.3977 19.6845 29.6101 14.9625 29.6101C10.2405 29.6101 6.4125 33.3977 6.4125 38.0701C6.4125 42.7424 10.2405 46.5301 14.9625 46.5301C19.6845 46.5301 23.5125 42.7424 23.5125 38.0701ZM38.475 29.6101C43.197 29.6101 47.025 33.3977 47.025 38.0701C47.025 42.7424 43.197 46.5301 38.475 46.5301C33.753 46.5301 29.925 42.7424 29.925 38.0701C29.925 33.3977 33.753 29.6101 38.475 29.6101Z" fill="white"/>
<path d="M43.5417 38.1875C43.5417 35.4836 41.3264 33.2916 38.5938 33.2916C35.8611 33.2916 33.6459 35.4836 33.6459 38.1875C33.6459 40.8914 35.8611 43.0833 38.5938 43.0833C41.3264 43.0833 43.5417 40.8914 43.5417 38.1875Z" fill="white"/>
<path d="M19.7917 38.1875C19.7917 35.4836 17.5764 33.2916 14.8438 33.2916C12.1111 33.2916 9.89587 35.4836 9.89587 38.1875C9.89587 40.8914 12.1111 43.0833 14.8438 43.0833C17.5764 43.0833 19.7917 40.8914 19.7917 38.1875Z" fill="white"/>
<path fill-rule="evenodd" clip-rule="evenodd" d="M98.9584 91.0625V112H108L102.916 117.5H79.1667L98.9584 91.0625Z" fill="white"/>
<path d="M129.149 110H101V32H129.381C137.369 32 144.245 33.5616 150.009 36.6845C155.774 39.7821 160.206 44.2382 163.308 50.0526C166.435 55.8671 168 62.824 168 70.9236C168 79.0486 166.435 86.0309 163.308 91.8708C160.206 97.7103 155.747 102.192 149.931 105.315C144.141 108.438 137.214 110 129.149 110ZM117.788 95.8699H128.451C133.415 95.8699 137.589 95.0065 140.975 93.2798C144.387 91.528 146.946 88.8238 148.651 85.1677C150.384 81.486 151.25 76.738 151.25 70.9236C151.25 65.16 150.384 60.45 148.651 56.7938C146.946 53.1376 144.4 50.4461 141.014 48.7196C137.627 46.993 133.453 46.1298 128.49 46.1298H117.788V95.8699Z" fill="#1384EC"/>
</g>
<defs>
<clipPath id="clip0_33_426">
<rect width="168" height="117" fill="white"/>
</clipPath>
</defs>
</svg>
