<svg width="99" height="82" viewBox="0 0 99 82" fill="none" xmlns="http://www.w3.org/2000/svg">
<path d="M43.0032 56.02C40.1582 53.175 35.2979 54.8346 34.1125 56.02L22.5 65L23.5 78H94.5L95 63C90.851 59.4437 77.8546 49.9744 75.0096 47.1293C72.1645 44.2843 68.9521 44.2961 66.1189 47.1294L51.8938 61.3544C50.4713 62.7769 48.3376 61.9471 48.3376 61.3544L43.0032 56.02Z" fill="#1384EC"/>
<path d="M21.7676 74.1406V31.4654C21.7676 30.7314 22.0767 29.4621 23.0856 28.3921C24.0432 27.3765 25.8101 26.3529 29.0816 26.3529H90.5541C93.7332 26.3529 94.8616 27.4405 95.3579 28.2696C95.9738 29.2984 96.0054 30.5517 96.0054 31.4654V74.1406C96.0054 75.7748 95.8255 76.9566 95.237 77.7528C94.7472 78.4155 93.6218 79.2531 90.5541 79.2531H29.0816C25.8101 79.2531 24.0432 78.2295 23.0856 77.2139C22.0767 76.1439 21.7676 74.8747 21.7676 74.1406Z" stroke="white" stroke-width="4"/>
<rect x="50.3433" y="31.4655" width="15.3154" height="15.4022" rx="7.65768" transform="rotate(56.1646 50.3433 31.4655)" fill="#1384EC"/>
<path d="M23.0421 66.1599C14.4332 68.8063 11.8312 66.1599 10.9566 62.754L2.32416 21.8839C1.9862 19.0186 0.208127 13.6842 10.8727 11.6668M10.9566 11.6663C10.9287 11.6663 10.9007 11.6665 10.8727 11.6668M10.8727 11.6668L62.7519 3.1517C66.2049 2.58406 71.3334 3.15171 73.1109 11.6663L74.8897 22.5749" stroke="white" stroke-width="4"/>
</svg>
