<svg width="39" height="37" viewBox="0 0 39 37" fill="none" xmlns="http://www.w3.org/2000/svg">
<path d="M7.79571 9.71651C8.861 9.3628 9.12733 8.22165 9.12733 7.69529L14.664 10.664L14.4538 14.2642L8.84699 9.84283L7.79571 9.71651Z" fill="#1AAA65"/>
<path d="M31.3442 9.71651C30.2789 9.3628 30.0126 8.22165 30.0126 7.69529L24.4759 10.664L24.6862 14.2642L30.293 9.84283L31.3442 9.71651Z" fill="#1AAA65"/>
<path d="M31.3442 27.4022C30.279 27.7559 30.0126 28.8971 30.0126 29.4234L24.4759 26.4548L24.6862 22.8545L30.293 27.2759L31.3442 27.4022Z" fill="#1AAA65"/>
<path d="M7.7957 27.4022C8.86099 27.7559 9.12731 28.8971 9.12731 29.4234L14.664 26.4548L14.4538 22.8545L8.84697 27.2759L7.7957 27.4022Z" fill="#1AAA65"/>
<path fill-rule="evenodd" clip-rule="evenodd" d="M15.2776 9.46386C15.2776 8.13827 16.3501 7.06366 17.6732 7.06366H21.4556C22.7787 7.06366 23.8512 8.13827 23.8512 9.46386V27.7811C23.8512 29.1067 22.7787 30.1813 21.4556 30.1813H17.6732C16.3501 30.1813 15.2776 29.1067 15.2776 27.7811V9.46386ZM22.5188 12.027C22.6753 12.0022 22.7834 11.8545 22.745 11.7005C22.5799 11.0373 22.2115 10.4397 21.6883 9.9938C21.0919 9.48558 20.3337 9.20799 19.5509 9.21123C18.768 9.21447 18.0121 9.49833 17.42 10.0115C16.9004 10.4617 16.537 11.0623 16.3773 11.7268C16.3403 11.8812 16.4495 12.0279 16.6062 12.0515C16.7629 12.075 16.9074 11.9662 16.9474 11.8126C17.0848 11.2838 17.3794 10.8066 17.7953 10.4463C18.2838 10.0229 18.9074 9.78877 19.5532 9.78609C20.1991 9.78342 20.8246 10.0124 21.3165 10.4317C21.7354 10.7886 22.0339 11.2633 22.1757 11.7909C22.2169 11.9442 22.3624 12.0518 22.5188 12.027ZM22.745 13.2909C22.7834 13.1369 22.6753 12.9892 22.5188 12.9644C22.3624 12.9396 22.2169 13.0472 22.1757 13.2005C22.0339 13.7281 21.7354 14.2028 21.3165 14.5597C20.8246 14.979 20.1991 15.208 19.5532 15.2053C18.9074 15.2026 18.2838 14.9685 17.7953 14.5451C17.3794 14.1848 17.0848 13.7076 16.9474 13.1788C16.9074 13.0252 16.7629 12.9164 16.6062 12.9399C16.4495 12.9635 16.3403 13.1102 16.3773 13.2646C16.537 13.9291 16.9004 14.5297 17.42 14.9799C18.0121 15.4931 18.768 15.7769 19.5509 15.7802C20.3337 15.7834 21.0919 15.5058 21.6883 14.9976C22.2115 14.5517 22.5799 13.9541 22.745 13.2909Z" fill="#1AAA65"/>
<path d="M6.53341 9.71421L5.49363 8.92314L3.97535 9.95402L0 14.7881L1.03979 15.5791L5.66052 11.2361L6.53341 9.71421Z" fill="#1AAA65"/>
<path d="M7.87038 6.0375L8.92979 6.80714L10.4218 5.7455L14.2745 0.831498L13.2151 0.0618653L8.70477 4.49817L7.87038 6.0375Z" fill="#1AAA65"/>
<path d="M8.41018 7.84027C8.41018 8.58363 7.80874 9.18624 7.06682 9.18624C6.3249 9.18624 5.72346 8.58363 5.72346 7.84027C5.72346 7.09692 6.3249 6.49431 7.06682 6.49431C7.80874 6.49431 8.41018 7.09692 8.41018 7.84027Z" fill="#1AAA65"/>
<path d="M32.4666 9.65235L33.5064 8.86127L35.0247 9.89216L39 14.7262L37.9602 15.5173L33.3395 11.1742L32.4666 9.65235Z" fill="#1AAA65"/>
<path d="M31.1296 5.97564L30.0702 6.74527L28.5783 5.68364L24.7255 0.769632L25.7849 0L30.2952 4.4363L31.1296 5.97564Z" fill="#1AAA65"/>
<path d="M30.5898 7.77841C30.5898 8.52177 31.1913 9.12437 31.9332 9.12437C32.6751 9.12437 33.2765 8.52177 33.2765 7.77841C33.2765 7.03506 32.6751 6.43245 31.9332 6.43245C31.1913 6.43245 30.5898 7.03506 30.5898 7.77841Z" fill="#1AAA65"/>
<path d="M6.78831 27.3476L5.74852 28.1387L4.23025 27.1078L0.254902 22.2738L1.29469 21.4827L5.91542 25.8257L6.78831 27.3476Z" fill="#1AAA65"/>
<path d="M8.12527 31.0244L9.18469 30.2547L10.6767 31.3164L14.5294 36.2304L13.47 37L8.95967 32.5637L8.12527 31.0244Z" fill="#1AAA65"/>
<path d="M8.66508 29.2215C8.66508 28.4782 8.06364 27.8756 7.32172 27.8756C6.5798 27.8756 5.97836 28.4782 5.97836 29.2215C5.97836 29.9649 6.5798 30.5675 7.32172 30.5675C8.06364 30.5675 8.66508 29.9649 8.66508 29.2215Z" fill="#1AAA65"/>
<path d="M32.3537 27.3476L33.3935 28.1387L34.9118 27.1078L38.8871 22.2738L37.8473 21.4827L33.2266 25.8257L32.3537 27.3476Z" fill="#1AAA65"/>
<path d="M31.0167 31.0244L29.9573 30.2547L28.4654 31.3164L24.6126 36.2304L25.672 37L30.1824 32.5637L31.0167 31.0244Z" fill="#1AAA65"/>
<path d="M30.4769 29.2215C30.4769 28.4782 31.0784 27.8756 31.8203 27.8756C32.5622 27.8756 33.1637 28.4782 33.1637 29.2215C33.1637 29.9649 32.5622 30.5675 31.8203 30.5675C31.0784 30.5675 30.4769 29.9649 30.4769 29.2215Z" fill="#1AAA65"/>
</svg>
