<svg width="131" height="111" viewBox="0 0 131 111" fill="none" xmlns="http://www.w3.org/2000/svg">
<path d="M84.7368 47.4739C83.3417 47.4739 82.2104 48.605 82.2104 50.0002C82.2104 51.3952 83.3417 52.5265 84.7368 52.5265V47.4739ZM97.3683 47.4739H84.7368V52.5265H97.3683V47.4739Z" fill="white"/>
<path d="M22.9505 26.5232C23.9371 27.5098 25.5366 27.5098 26.5232 26.5232C27.5098 25.5366 27.5098 23.9371 26.5232 22.9505L22.9505 26.5232ZM13.4768 17.0495L22.9505 26.5232L26.5232 22.9505L17.0495 13.4768L13.4768 17.0495Z" fill="white"/>
<path d="M47.4739 15.2632C47.4739 16.6584 48.605 17.7895 50.0002 17.7895C51.3952 17.7895 52.5265 16.6584 52.5265 15.2632H47.4739ZM47.4739 2.63159V15.2632H52.5265V2.63159H47.4739Z" fill="white"/>
<path d="M15.2632 52.5265C16.6584 52.5265 17.7895 51.3952 17.7895 50.0002C17.7895 48.605 16.6584 47.4739 15.2632 47.4739V52.5265ZM2.63159 52.5265H15.2632V47.4739H2.63159V52.5265Z" fill="white"/>
<path d="M73.4765 22.9505C72.4902 23.9371 72.4902 25.5366 73.4765 26.5232C74.4633 27.5098 76.063 27.5098 77.0497 26.5232L73.4765 22.9505ZM82.9502 13.4768L73.4765 22.9505L77.0497 26.5232L86.5234 17.0495L82.9502 13.4768Z" fill="white"/>
<path d="M26.5232 77.0497C27.5098 76.063 27.5098 74.4633 26.5232 73.4765C25.5366 72.4902 23.9371 72.4902 22.9505 73.4765L26.5232 77.0497ZM22.9505 73.4765L13.4768 82.9502L17.0495 86.5234L26.5232 77.0497L22.9505 73.4765Z" fill="white"/>
<path d="M24.5776 69.9378L48.9805 36.4043L60.356 48.9636L24.5776 69.9378Z" fill="white"/>
<path fill-rule="evenodd" clip-rule="evenodd" d="M4 50C4 24.5949 24.5949 4 50 4C75.4051 4 96 24.5949 96 50C96 62.3841 91.1062 73.6252 83.1469 81.8949L80.4805 89.6382C84.3676 86.6447 87.802 83.0922 90.6634 79.1011C90.6686 78.5959 90.6787 78.0294 90.6942 77.3963C90.9486 66.9743 97.2531 64.2675 97.2531 64.2675C97.2531 64.2675 97.5777 64.1166 98.04 63.9088C99.3161 59.4934 100 54.8265 100 50C100 22.3858 77.6142 0 50 0C22.3858 0 0 22.3858 0 50C0 77.6142 22.3858 100 50 100C50.3727 100 50.7443 99.9959 51.115 99.9878L49.7373 95.9993C24.4531 95.8579 4 75.3175 4 50ZM97.7029 65.0258C91.4214 69.0095 91.555 74.7837 91.615 77.3793C91.6178 77.498 91.6204 77.6101 91.6222 77.7151C94.2118 73.8337 96.273 69.5697 97.7029 65.0258ZM65.1385 93.4509C71.3111 91.3005 76.8848 87.8721 81.5426 83.4824L79.0597 90.693C71.4186 96.1594 62.1737 99.5271 52.1672 99.9539L50.7991 95.9932C55.0916 95.9201 59.2408 95.259 63.1698 94.0871L64.0503 96.8694L64.0502 96.8671L64.0523 96.8793L65.1385 93.4509ZM63.9912 95.4645L64.4393 93.6881C64.1651 93.7787 63.8896 93.8668 63.6131 93.9524L63.9912 95.4645Z" fill="white"/>
<path fill-rule="evenodd" clip-rule="evenodd" d="M50.0002 82C51.3952 82 52.5265 83.1313 52.5265 84.5263V97.1579H51.2014L47.4739 86.3667V84.5263C47.4739 83.1313 48.605 82 50.0002 82ZM47.4739 89.4467V97.1579H50.1375L47.4739 89.4467Z" fill="white"/>
<path fill-rule="evenodd" clip-rule="evenodd" d="M73.4765 73.4765C74.4633 72.4902 76.063 72.4902 77.0497 73.4765L82.8919 79.5643L81.1242 84.6975L73.4765 77.0497C72.4902 76.063 72.4902 74.4633 73.4765 73.4765ZM81.911 85.4842L82.9502 86.5234L85.3229 82.0975L83.6702 80.3753L81.911 85.4842Z" fill="white"/>
<path d="M88.714 62.765L72.433 110H55.616L39.268 62.765H53.338L64.058 96.868L74.711 62.765H88.714ZM110.628 110.469C105.134 110.469 100.622 109.174 97.0937 106.583C93.565 103.948 91.6667 100.196 91.3987 95.327H105.402C105.536 96.9797 106.027 98.1857 106.876 98.945C107.724 99.7043 108.819 100.084 110.159 100.084C111.365 100.084 112.347 99.7937 113.107 99.213C113.911 98.5877 114.313 97.739 114.313 96.667C114.313 95.2823 113.665 94.2103 112.37 93.451C111.074 92.6917 108.975 91.843 106.072 90.905C102.99 89.8777 100.488 88.895 98.5677 87.957C96.6917 86.9743 95.039 85.5673 93.6097 83.736C92.225 81.86 91.5327 79.4257 91.5327 76.433C91.5327 73.3957 92.292 70.805 93.8107 68.661C95.3294 66.4723 97.4287 64.8197 100.109 63.703C102.789 62.5863 105.826 62.028 109.221 62.028C114.715 62.028 119.092 63.3233 122.353 65.914C125.658 68.46 127.422 72.0557 127.646 76.701H113.375C113.33 75.2717 112.883 74.1997 112.035 73.485C111.231 72.7703 110.181 72.413 108.886 72.413C107.903 72.413 107.099 72.7033 106.474 73.284C105.848 73.8647 105.536 74.691 105.536 75.763C105.536 76.6563 105.871 77.438 106.541 78.108C107.255 78.7333 108.126 79.2917 109.154 79.783C110.181 80.2297 111.7 80.8103 113.71 81.525C116.702 82.5523 119.159 83.5797 121.08 84.607C123.045 85.5897 124.72 86.9967 126.105 88.828C127.534 90.6147 128.249 92.8927 128.249 95.662C128.249 98.476 127.534 101 126.105 103.233C124.72 105.466 122.688 107.231 120.008 108.526C117.372 109.821 114.246 110.469 110.628 110.469Z" fill="#1384EC"/>
</svg>
