<svg width="108" height="108" viewBox="0 0 108 108" fill="none" xmlns="http://www.w3.org/2000/svg">
<circle cx="25.2" cy="25.2" r="21.7" stroke="#1384EC" stroke-width="5"/>
<circle cx="82.8001" cy="25.2" r="22.2" stroke="#1384EC" stroke-width="6"/>
<circle cx="25.2" cy="82.8001" r="22.2" stroke="#1384EC" stroke-width="6"/>
<circle cx="82.8001" cy="82.8001" r="22.2" stroke="#1384EC" stroke-width="6"/>
<path d="M17.5686 17.7481C13.7322 22.2187 14.0391 29.1791 18.2542 33.2947C22.4693 37.4102 28.9963 37.1223 32.8327 32.6518C36.6692 28.1812 36.3622 21.2208 32.1471 17.1052C27.9321 12.9897 21.405 13.2776 17.5686 17.7481ZM75.1686 75.3481C71.3322 79.8187 71.6391 86.7791 75.8542 90.8947C80.0693 95.0102 86.5963 94.7223 90.4327 90.2518C94.2692 85.7812 93.9622 78.8207 89.7471 74.7052C85.5321 70.5897 79.005 70.8776 75.1686 75.3481ZM23.8812 26.7009L81.4812 84.3009L84.1202 81.299L26.5202 23.699L23.8812 26.7009Z" fill="#1384EC"/>
<path d="M90.4948 17.8127C86.6958 13.3103 80.1711 12.9676 75.9214 17.0473C71.6716 21.127 71.3062 28.0843 75.1052 32.5867C78.9042 37.0892 85.4289 37.4319 89.6786 33.3522C93.9283 29.2724 94.2937 22.3152 90.4948 17.8127ZM32.8954 75.413C29.0964 70.9105 22.5717 70.5678 18.322 74.6476C14.0722 78.7273 13.7068 85.6845 17.5058 90.187C21.3047 94.6895 27.8295 95.0322 32.0792 90.9524C36.3289 86.8727 36.6943 79.9155 32.8954 75.413ZM81.481 23.6998L23.8816 81.3001L26.5196 84.2999L84.119 26.6996L81.481 23.6998Z" fill="#1384EC"/>
</svg>
