<svg width="96" height="96" viewBox="0 0 96 96" fill="none" xmlns="http://www.w3.org/2000/svg">
<path d="M10.8899 55.7229C9.14294 66.2856 17.8537 85.4267 41.5684 84.591" stroke="#1384EC" stroke-width="4" stroke-linecap="round"/>
<path d="M21.1626 53.814C21.8809 60.278 27.1816 73.3687 42.6376 74.022" stroke="#1384EC" stroke-width="4" stroke-linecap="round"/>
<path d="M15.8734 3.35739L10.6353 9.02568C8.92179 10.8799 9.02325 13.7857 10.8619 15.5158L28.7464 32.345C30.585 34.0752 33.4646 33.9747 35.1781 32.1205L40.4163 26.4522C42.1298 24.5979 42.0283 21.6922 40.1896 19.962L22.3052 3.13279C20.4665 1.40261 17.5869 1.50316 15.8734 3.35739Z" fill="white"/>
<path d="M68.3544 52.0769L63.1163 57.7452C61.4027 59.5994 61.5042 62.5051 63.3429 64.2353L81.2273 81.0645C83.066 82.7947 85.9456 82.6942 87.6591 80.8399L92.8972 75.1716C94.6107 73.3174 94.5093 70.4117 92.6706 68.6815L74.7862 51.8523C72.9475 50.1221 70.0679 50.2226 68.3544 52.0769Z" fill="white"/>
<path fill-rule="evenodd" clip-rule="evenodd" d="M38.1808 58.254L36.6811 56.8428C31.1651 51.6522 30.8607 42.935 36.0012 37.3723L54.5763 17.2717C59.7169 11.709 68.3557 11.4073 73.8717 16.5979L75.3714 18.0091C80.8874 23.1997 81.1918 31.9169 76.0513 37.4796L57.4762 57.5802C52.3357 63.1429 43.6968 63.4446 38.1808 58.254ZM51.4477 51.8614L69.1353 32.7213C69.6378 32.1775 70.4823 32.148 71.0215 32.6554C71.5607 33.1628 71.5905 34.015 71.088 34.5587L53.4004 53.6989C52.8979 54.2426 52.0534 54.2721 51.5142 53.7647C50.975 53.2573 50.9452 52.4052 51.4477 51.8614Z" fill="white"/>
</svg>
