<svg width="176" height="66" viewBox="0 0 176 66" fill="none" xmlns="http://www.w3.org/2000/svg">
<path d="M35.7662 39.1968C28.4216 33.4597 20.8883 20.5879 18.2508 3.29968C13.1821 5.9221 14.2558 16.9573 16.4373 21.9028C16.497 22.336 16.3198 22.386 16.1139 22.2359C12.9143 19.6259 11.4739 17.3849 9.599 11.861C6.86716 18.1699 11.1546 26.2845 14.951 29.4842C15.1147 29.6305 15.157 29.9039 14.951 29.9751C9.54125 30.7279 5.23845 26.1825 3.71369 24.0436C3.26127 27.9903 9.01952 36.4014 15.4458 36.4014C15.6499 36.4014 15.5575 36.6941 15.4458 36.8923C14.5525 38.5345 9.66253 39.2931 5.75247 37.7183C7.45819 41.1355 10.2593 41.9229 16.4411 41.9922C16.6529 41.9922 16.5964 42.2598 16.4411 42.4889C15.2879 44.1907 13.3762 44.9185 11.8265 45.5345C13.7824 46.6011 15.5267 46.4798 18.4125 45.4556C18.8457 45.3516 18.9516 45.6231 18.7456 45.7867C18.0872 46.2931 18.0872 47.1825 18.0872 48.7438L0 58.2985H6.57453C9.07984 56.8547 14.2641 53.9118 14.9587 53.6916C15.5748 53.4586 15.6191 53.8687 15.4535 54.015L10.0225 58.133H15.7827L21.206 53.6916C21.4158 53.3989 22.0454 53.6916 21.8663 54.0188L18.8958 58.2851H23.522L27.0335 52.9099L26.7159 47.5618L48.7069 41.2067C46.9559 39.0947 43.598 36.7471 40.0112 36.3706C40.791 36.8558 40.7929 37.4815 40.7929 37.6027C40.7652 37.9785 40.4566 37.9672 40.3058 37.9146C39.8053 37.1938 39.2309 37.2216 39.0063 37.3255C39.4776 37.5627 39.5839 38.0019 39.5781 38.1919C37.7191 39.233 36.2623 39.2956 35.7662 39.1968Z" fill="#022D55"/>
<path d="M38.4771 35.8971C31.1325 30.16 23.5993 17.2882 20.9618 0C15.893 2.62242 16.9667 13.6576 19.1482 18.6031C19.2079 19.0363 19.0308 19.0863 18.8248 18.9362C15.6253 16.3262 14.1848 14.0852 12.3099 8.56133C9.5781 14.8702 13.8655 22.9849 17.662 26.1845C17.8256 26.3308 17.868 26.6042 17.662 26.6755C12.2522 27.4282 7.94938 22.8828 6.42463 20.7439C5.97221 24.6906 11.7305 33.1017 18.1567 33.1017C18.3608 33.1017 18.2684 33.3944 18.1567 33.5927C17.2635 35.2349 12.3735 35.9934 8.46341 34.4186C10.1691 37.8358 12.9703 38.6232 19.1521 38.6925C19.3638 38.6925 19.3073 38.9601 19.1521 39.1892C17.9989 40.8911 16.0872 41.6188 14.5374 42.2349C16.4934 43.3014 18.2376 43.1801 21.1235 42.1559C21.5566 42.052 21.6625 42.3234 21.4565 42.4871C20.7981 42.9934 20.7981 43.8828 20.7981 45.4441L2.71094 54.9989H9.28547C11.7908 53.555 16.9751 50.6121 17.6697 50.3919C18.2857 50.1589 18.33 50.569 18.1644 50.7153L12.7335 54.8333H18.4937L23.9169 50.3919C24.1268 50.0993 24.7563 50.3919 24.5773 50.7192L21.6067 54.9854H26.2329L29.7445 49.6103C31.3971 49.7781 33.3747 49.095 34.157 48.7324C35.1119 51.2602 38.8198 52.4788 40.1944 53.6031C39.6384 54.0005 39.4943 54.4797 39.4917 54.6697C39.5225 55.1255 40.1052 55.4038 40.3927 55.4859C40.4358 54.6881 40.883 54.6093 41.1012 54.6697L43.3306 56.1515C43.5308 56.3209 43.4481 56.6738 43.1785 56.8933C44.0019 56.9235 44.2032 56.7221 44.3039 56.2186C44.4214 56.2186 44.6563 56.4032 44.555 56.9857L45.0151 56.6738C45.6023 56.2117 45.3424 55.794 45.0151 55.4859C44.786 55.2703 42.3051 53.5024 41.0299 52.6617C39.2726 51.217 39.1901 48.3082 39.3685 47.0344C39.3839 46.4922 39.6162 46.1988 39.7304 46.1199L49.5662 42.3215C50.1815 42.1181 52.1903 41.9292 53.5629 42.7239C53.6988 43.0018 53.7937 43.3644 53.6631 43.9733L56.0002 41.4166C54.9868 40.2507 53.047 39.3329 52.2038 39.0198C50.8773 36.7115 46.9595 33.5157 42.7222 33.0709C43.5019 33.5561 43.5038 34.1818 43.5038 34.3031C43.4761 34.6789 43.1676 34.6676 43.0168 34.6149C42.5162 33.8942 41.9418 33.9219 41.7172 34.0258C42.1885 34.263 42.2948 34.7022 42.289 34.8922C40.4301 35.9333 38.9732 35.9959 38.4771 35.8971Z" fill="#0070D8"/>
<mask id="path-3-inside-1_133_214" fill="white">
<path d="M27.1157 55.7715C29.5424 57.3036 32.4204 58.1907 35.5065 58.1907C37.8482 58.1907 40.07 57.68 42.0658 56.7642C42.4132 56.6049 43.0247 56.3615 42.3535 57.0328C42.2136 57.195 42.1622 57.5362 43.0751 57.6033C43.2093 57.6376 43.4107 57.7798 43.1422 58.0743C40.8385 59.202 38.2467 59.8353 35.5065 59.8353C31.2499 59.8353 27.3517 58.3071 24.3345 55.7715H27.1157Z"/>
<path d="M35.5065 25.2986C33.8618 25.2986 32.2705 25.5268 30.7629 25.9531L31.7139 27.4027C32.9284 27.1025 34.1988 26.9432 35.5065 26.9432C41.6323 26.9432 46.9382 30.4385 49.5223 35.5354C50.7947 36.3409 51.8687 37.415 52.202 37.9016C50.1587 30.631 43.4578 25.2986 35.5065 25.2986Z"/>
<path d="M52.8272 43.2886L51.1883 43.104C51.0279 47.8338 48.756 52.0305 45.2816 54.7892L46.4488 55.9612C50.1757 52.9365 52.6163 48.399 52.8272 43.2886Z"/>
</mask>
<path d="M27.1157 55.7715L53.8083 13.4926L41.5787 5.77145H27.1157V55.7715ZM24.3345 55.7715V5.77145H-112.877L-7.83411 94.0491L24.3345 55.7715ZM30.7629 25.9531L17.1578 -22.1604L-48.4341 -3.61296L-11.0432 53.3803L30.7629 25.9531ZM31.7139 27.4027L-10.0922 54.8299L9.33296 84.4388L43.7108 75.9421L31.7139 27.4027ZM49.5223 35.5354L4.92659 58.1456L11.1496 70.4196L22.7767 77.7808L49.5223 35.5354ZM52.202 37.9016L10.9486 66.1534L100.337 24.3742L52.202 37.9016ZM51.1883 43.104L56.7849 -6.58184L3.05033 -12.6345L1.21706 41.4088L51.1883 43.104ZM52.8272 43.2886L102.785 45.3501L104.705 -1.18412L58.4238 -6.39724L52.8272 43.2886ZM42.0658 56.7642L21.2149 11.3193L21.2148 11.3194L42.0658 56.7642ZM42.3535 57.0328L6.99813 21.6774L5.69038 22.9852L4.48282 24.3859L42.3535 57.0328ZM43.0751 57.6033L55.4396 9.15627L51.1534 8.06235L46.7417 7.73795L43.0751 57.6033ZM43.1422 58.0743L65.1252 102.982L73.6768 98.7964L80.0915 91.7603L43.1422 58.0743ZM45.2816 54.7892L14.1904 15.6314L-29.6288 50.4237L9.85239 90.0705L45.2816 54.7892ZM46.4488 55.9612L11.0196 91.2425L42.889 123.246L77.9574 94.784L46.4488 55.9612ZM35.5065 8.19069C42.1323 8.19069 48.4716 10.1232 53.8083 13.4926L0.423038 98.0503C10.6133 104.484 22.7085 108.191 35.5065 108.191V8.19069ZM35.5065 9.8353C43.4311 9.8353 50.8323 12.728 56.5031 17.4937L-7.83411 94.0491C3.87104 103.886 19.0687 109.835 35.5065 109.835V9.8353ZM27.1157 5.77145H24.3345V105.771H27.1157V5.77145ZM44.3679 74.0665C41.4913 74.8799 38.5058 75.2986 35.5065 75.2986V-24.7014C29.2177 -24.7014 23.0497 -23.8264 17.1578 -22.1604L44.3679 74.0665ZM43.7108 75.9421C41.0302 76.6046 38.273 76.9432 35.5065 76.9432V-23.0568C30.1246 -23.0568 24.8266 -22.3996 19.717 -21.1367L43.7108 75.9421ZM-11.0432 53.3803L-10.0922 54.8299L73.52 -0.024519L72.5689 -1.47412L-11.0432 53.3803ZM35.5065 76.9432C22.1534 76.9432 10.5673 69.2713 4.92659 58.1456L94.118 12.9252C83.309 -8.39429 61.1111 -23.0568 35.5065 -23.0568V76.9432ZM35.5065 75.2986C20.5851 75.2986 7.95727 65.2732 4.06667 51.4291L100.337 24.3742C92.3601 -4.0112 66.3304 -24.7014 35.5065 -24.7014V75.2986ZM22.7767 77.7808C20.4799 76.3267 18.731 74.89 17.4314 73.6989C16.7398 73.065 15.9343 72.2795 15.0515 71.3214C14.382 70.5949 12.7522 68.787 10.9486 66.1534L93.4553 9.64986C88.3662 2.21871 81.7185 -3.25922 76.268 -6.70995L22.7767 77.7808ZM45.5917 92.7897L47.2305 92.9743L58.4238 -6.39724L56.7849 -6.58184L45.5917 92.7897ZM21.2148 11.3194C25.6327 9.29233 30.5118 8.19069 35.5065 8.19069V108.191C45.1845 108.191 54.5072 106.068 62.9168 102.209L21.2148 11.3194ZM62.9166 102.209C62.5375 102.383 61.2099 102.991 59.4136 103.643C58.5217 103.967 56.8172 104.559 54.6061 105.111C53.0735 105.494 47.9313 106.756 41.1941 106.567C37.3153 106.459 13.2474 105.448 -0.54393 81.7975C-13.6493 59.3228 -4.09805 38.6597 -2.8207 35.87C-0.210991 30.1703 2.87489 26.3527 3.84317 25.1687C5.20531 23.5031 6.38169 22.2939 6.99813 21.6774L77.7088 92.3881C78.4931 91.6038 79.7972 90.2554 81.253 88.4752C82.315 87.1767 85.4605 83.2692 88.1018 77.5004C89.4108 74.6416 98.9657 53.9302 85.842 31.4241C72.0323 7.74178 47.9242 6.71656 43.9891 6.60654C37.1957 6.41659 31.9814 7.68987 30.3668 8.09325C28.0737 8.66617 26.2774 9.28719 25.2897 9.64573C23.302 10.3673 21.7677 11.0657 21.2149 11.3193L62.9166 102.209ZM4.48282 24.3859C-2.20815 32.1475 -18.3725 59.2042 2.0307 86.9648C9.93793 97.7233 19.8983 102.48 25.5286 104.519C31.3941 106.644 36.4513 107.251 39.4085 107.469L46.7417 7.73795C49.2424 7.92183 53.9637 8.46112 59.5865 10.4979C64.974 12.4494 74.7848 17.0981 82.6083 27.7427C91.4101 39.7184 93.7145 53.8795 91.4612 66.1861C89.4767 77.0246 84.3801 84.8586 80.2241 89.6796L4.48282 24.3859ZM21.1592 13.1661C25.5537 11.0149 30.4662 9.8353 35.5065 9.8353V109.835C46.0273 109.835 56.1232 107.389 65.1252 102.982L21.1592 13.1661ZM30.7105 106.05C24.488 104.462 6.46374 98.3598 -2.54065 77.7994C-14.1878 51.2047 0.756922 30.3508 6.19293 24.3882L80.0915 91.7603C85.796 85.5032 100.774 64.431 89.06 37.683C79.9885 16.9694 61.7964 10.7786 55.4396 9.15627L30.7105 106.05ZM1.21706 41.4088C1.57514 30.8528 6.69028 21.5865 14.1904 15.6314L76.3729 93.947C90.8218 82.4746 100.481 64.8148 101.16 44.7991L1.21706 41.4088ZM2.86968 41.227C3.27537 31.3959 8.01066 22.7625 14.9402 17.1385L77.9574 94.784C92.3408 83.1105 101.957 65.4021 102.785 45.3501L2.86968 41.227ZM9.85239 90.0705L11.0196 91.2425L81.878 20.68L80.7109 19.5079L9.85239 90.0705Z" fill="#095CA9" mask="url(#path-3-inside-1_133_214)"/>
<path d="M49.8998 50.0243C48.7922 49.3519 47.8429 49.3123 47.2891 49.3123C47.4275 48.2443 48.4955 48.2443 48.4955 48.2443C50.8887 49.0947 50.1767 50.0243 49.8998 50.0243Z" fill="black"/>
<path d="M65.5 55V37.8H76.675V39.65H67.65V45.375H75.5V47.25H67.65V53.15H76.675V55H65.5ZM82.7135 55.2C81.9135 55.2 81.2385 55.075 80.6885 54.825C80.1385 54.575 79.7218 54.1667 79.4385 53.6C79.1718 53.0333 79.0385 52.2917 79.0385 51.375C79.0385 50.4083 79.1468 49.6417 79.3635 49.075C79.5968 48.4917 80.0051 48.075 80.5885 47.825C81.1718 47.575 81.9968 47.45 83.0635 47.45C83.2135 47.45 83.4218 47.4583 83.6885 47.475C83.9718 47.475 84.2885 47.4833 84.6385 47.5C84.9885 47.5 85.3385 47.5083 85.6885 47.525C86.0385 47.525 86.3551 47.5333 86.6385 47.55V47.075C86.6385 46.5917 86.5968 46.2167 86.5135 45.95C86.4468 45.6833 86.3051 45.4917 86.0885 45.375C85.8885 45.2417 85.5801 45.1667 85.1635 45.15C84.7468 45.1167 84.1968 45.1 83.5135 45.1C83.1301 45.1 82.7051 45.1083 82.2385 45.125C81.7885 45.1417 81.3385 45.1667 80.8885 45.2C80.4551 45.2167 80.0885 45.2417 79.7885 45.275V42.45C80.4718 42.3333 81.2385 42.2417 82.0885 42.175C82.9551 42.0917 83.8635 42.05 84.8135 42.05C85.8801 42.05 86.7635 42.1167 87.4635 42.25C88.1801 42.3833 88.7551 42.5917 89.1885 42.875C89.6218 43.1417 89.9385 43.4833 90.1385 43.9C90.3551 44.3167 90.4968 44.8083 90.5635 45.375C90.6301 45.9417 90.6635 46.5833 90.6635 47.3V55H86.8135L86.7135 53.5H86.5135C86.1968 54 85.8301 54.375 85.4135 54.625C84.9968 54.875 84.5551 55.0333 84.0885 55.1C83.6218 55.1667 83.1635 55.2 82.7135 55.2ZM84.6135 52.35C84.9135 52.35 85.1718 52.3333 85.3885 52.3C85.6218 52.25 85.8135 52.175 85.9635 52.075C86.1301 51.9583 86.2635 51.8167 86.3635 51.65C86.4468 51.4667 86.5135 51.2417 86.5635 50.975C86.6135 50.7083 86.6385 50.3917 86.6385 50.025V49.55H84.3135C83.8968 49.55 83.5801 49.5833 83.3635 49.65C83.1468 49.7 82.9968 49.8333 82.9135 50.05C82.8468 50.25 82.8135 50.5667 82.8135 51C82.8135 51.3667 82.8551 51.65 82.9385 51.85C83.0218 52.05 83.1885 52.1833 83.4385 52.25C83.7051 52.3167 84.0968 52.35 84.6135 52.35ZM98.8736 60.15C98.3403 60.15 97.782 60.1333 97.1986 60.1C96.632 60.0833 96.0986 60.05 95.5986 60C95.0986 59.95 94.682 59.8917 94.3486 59.825V57.05C94.6986 57.0667 95.0736 57.075 95.4736 57.075C95.8736 57.0917 96.2736 57.1 96.6736 57.1C97.0903 57.1 97.482 57.1 97.8486 57.1C98.6653 57.1 99.2986 57.0667 99.7486 57C100.215 56.95 100.557 56.825 100.774 56.625C101.007 56.4417 101.149 56.1583 101.199 55.775C101.249 55.4083 101.274 54.9083 101.274 54.275V53.375H101.074C100.824 53.8083 100.515 54.1417 100.149 54.375C99.7986 54.5917 99.407 54.7417 98.9736 54.825C98.5403 54.9083 98.0736 54.95 97.5736 54.95C96.807 54.95 96.157 54.85 95.6236 54.65C95.0903 54.4333 94.6486 54.0917 94.2986 53.625C93.9653 53.1417 93.7236 52.4833 93.5736 51.65C93.4236 50.8167 93.3486 49.775 93.3486 48.525C93.3486 47.2583 93.4236 46.2083 93.5736 45.375C93.7403 44.5417 93.9903 43.8833 94.3236 43.4C94.657 42.9167 95.0903 42.575 95.6236 42.375C96.157 42.1583 96.7986 42.05 97.5486 42.05C98.0153 42.05 98.4736 42.1 98.9236 42.2C99.3903 42.2833 99.8153 42.45 100.199 42.7C100.599 42.95 100.924 43.3167 101.174 43.8H101.374L101.474 42.25H105.299V53.55C105.299 54.6667 105.24 55.6417 105.124 56.475C105.007 57.3083 104.74 57.9917 104.324 58.525C103.924 59.075 103.29 59.4833 102.424 59.75C101.574 60.0167 100.39 60.15 98.8736 60.15ZM99.3236 51.675C99.807 51.675 100.174 51.625 100.424 51.525C100.69 51.4083 100.882 51.2083 100.999 50.925C101.115 50.6583 101.19 50.3333 101.224 49.95C101.257 49.55 101.274 49.075 101.274 48.525C101.274 47.9917 101.257 47.525 101.224 47.125C101.207 46.725 101.132 46.4 100.999 46.15C100.882 45.8333 100.69 45.625 100.424 45.525C100.174 45.4083 99.807 45.35 99.3236 45.35C98.8736 45.35 98.5153 45.3833 98.2486 45.45C97.982 45.5 97.782 45.625 97.6486 45.825C97.532 46.025 97.457 46.3417 97.4236 46.775C97.3903 47.2083 97.3736 47.7917 97.3736 48.525C97.3736 49.2583 97.3903 49.8333 97.4236 50.25C97.457 50.6667 97.532 50.9833 97.6486 51.2C97.782 51.4 97.982 51.5333 98.2486 51.6C98.5153 51.65 98.8736 51.675 99.3236 51.675ZM108.398 55V36.425H112.448V55H108.398ZM121.501 55.2C120.301 55.2 119.309 55.125 118.526 54.975C117.743 54.825 117.118 54.5917 116.651 54.275C116.201 53.9417 115.859 53.5167 115.626 53C115.409 52.4833 115.268 51.8667 115.201 51.15C115.151 50.4333 115.126 49.6 115.126 48.65C115.126 47.5 115.176 46.5083 115.276 45.675C115.393 44.8417 115.643 44.1583 116.026 43.625C116.409 43.0917 117.001 42.7 117.801 42.45C118.618 42.1833 119.718 42.05 121.101 42.05C122.218 42.05 123.126 42.1333 123.826 42.3C124.526 42.45 125.076 42.6917 125.476 43.025C125.893 43.3417 126.184 43.7583 126.351 44.275C126.534 44.7917 126.651 45.4167 126.701 46.15C126.751 46.8667 126.776 47.7 126.776 48.65V49.625H119.101C119.101 50.1917 119.126 50.65 119.176 51C119.226 51.3333 119.359 51.5833 119.576 51.75C119.793 51.9167 120.126 52.0333 120.576 52.1C121.026 52.15 121.651 52.175 122.451 52.175C122.768 52.175 123.143 52.1667 123.576 52.15C124.009 52.1333 124.459 52.1083 124.926 52.075C125.409 52.0417 125.859 52.0083 126.276 51.975V54.775C125.909 54.8583 125.459 54.9333 124.926 55C124.409 55.0667 123.851 55.1167 123.251 55.15C122.651 55.1833 122.068 55.2 121.501 55.2ZM123.001 47.95V47.55C123.001 46.95 122.968 46.475 122.901 46.125C122.851 45.775 122.751 45.5167 122.601 45.35C122.468 45.1667 122.276 45.05 122.026 45C121.776 44.95 121.459 44.925 121.076 44.925C120.643 44.925 120.293 44.9583 120.026 45.025C119.776 45.075 119.584 45.1917 119.451 45.375C119.318 45.5583 119.226 45.825 119.176 46.175C119.126 46.525 119.101 46.9833 119.101 47.55H123.426L123.001 47.95ZM130.417 55V37.8H141.592V39.65H132.567V45.375H140.417V47.25H132.567V53.15H141.592V55H130.417ZM150.03 60.15C149.547 60.15 149.039 60.1333 148.505 60.1C147.989 60.0833 147.489 60.0583 147.005 60.025C146.539 60.0083 146.122 59.975 145.755 59.925V58.3C146.305 58.3167 146.805 58.3333 147.255 58.35C147.722 58.3833 148.147 58.4 148.53 58.4C148.93 58.4167 149.289 58.425 149.605 58.425C150.572 58.425 151.33 58.35 151.88 58.2C152.447 58.05 152.864 57.8 153.13 57.45C153.397 57.1167 153.564 56.6667 153.63 56.1C153.714 55.5333 153.755 54.8417 153.755 54.025V53.275H153.605C153.472 53.6083 153.247 53.9167 152.93 54.2C152.614 54.4833 152.18 54.7083 151.63 54.875C151.08 55.0417 150.364 55.125 149.48 55.125C148.547 55.125 147.789 55.0333 147.205 54.85C146.639 54.65 146.205 54.35 145.905 53.95C145.605 53.5333 145.397 53.0167 145.28 52.4C145.18 51.7833 145.13 51.05 145.13 50.2V42.25H147.18V49.475C147.18 50.3417 147.214 51.0333 147.28 51.55C147.347 52.0667 147.489 52.4583 147.705 52.725C147.939 52.975 148.264 53.1417 148.68 53.225C149.097 53.3083 149.639 53.35 150.305 53.35C151.139 53.35 151.789 53.25 152.255 53.05C152.722 52.8333 153.055 52.525 153.255 52.125C153.472 51.725 153.605 51.25 153.655 50.7C153.722 50.1333 153.755 49.5 153.755 48.8V42.25H155.78V53.425C155.78 54.6417 155.714 55.675 155.58 56.525C155.464 57.3917 155.205 58.0833 154.805 58.6C154.422 59.1333 153.847 59.525 153.08 59.775C152.314 60.025 151.297 60.15 150.03 60.15ZM165.296 55.2C164.263 55.2 163.396 55.1333 162.696 55C162.013 54.8667 161.463 54.65 161.046 54.35C160.63 54.0333 160.313 53.625 160.096 53.125C159.88 52.6083 159.738 51.9833 159.671 51.25C159.605 50.5167 159.571 49.65 159.571 48.65C159.571 47.4667 159.621 46.4583 159.721 45.625C159.821 44.775 160.046 44.0917 160.396 43.575C160.763 43.0417 161.33 42.6583 162.096 42.425C162.863 42.175 163.896 42.05 165.196 42.05C166.18 42.05 166.98 42.125 167.596 42.275C168.23 42.425 168.73 42.6583 169.096 42.975C169.463 43.2917 169.73 43.7167 169.896 44.25C170.08 44.7667 170.196 45.3917 170.246 46.125C170.296 46.8417 170.321 47.675 170.321 48.625V49.3H161.596C161.596 50.1667 161.638 50.875 161.721 51.425C161.805 51.975 161.971 52.4 162.221 52.7C162.488 53 162.896 53.2083 163.446 53.325C164.013 53.4417 164.78 53.5 165.746 53.5C166.146 53.5 166.588 53.4917 167.071 53.475C167.555 53.4417 168.038 53.4 168.521 53.35C169.005 53.3 169.438 53.25 169.821 53.2V54.85C169.471 54.9167 169.038 54.975 168.521 55.025C168.021 55.075 167.488 55.1167 166.921 55.15C166.371 55.1833 165.83 55.2 165.296 55.2ZM168.346 48.275V47.6C168.346 46.7333 168.296 46.05 168.196 45.55C168.096 45.0333 167.921 44.65 167.671 44.4C167.438 44.1333 167.113 43.9583 166.696 43.875C166.28 43.7917 165.763 43.75 165.146 43.75C164.346 43.75 163.713 43.8083 163.246 43.925C162.78 44.025 162.43 44.2167 162.196 44.5C161.963 44.7833 161.805 45.1917 161.721 45.725C161.638 46.2583 161.596 46.9667 161.596 47.85H168.821L168.346 48.275Z" fill="#B8B8B8"/>
<path d="M96 30V23.12H98.18C98.7467 23.12 99.21 23.1467 99.57 23.2C99.93 23.2533 100.213 23.35 100.42 23.49C100.633 23.63 100.79 23.83 100.89 24.09C100.99 24.35 101.053 24.68 101.08 25.08C101.107 25.48 101.12 25.9733 101.12 26.56C101.12 27.1467 101.107 27.64 101.08 28.04C101.053 28.44 100.99 28.77 100.89 29.03C100.79 29.29 100.633 29.49 100.42 29.63C100.213 29.77 99.93 29.8667 99.57 29.92C99.21 29.9733 98.7467 30 98.18 30H96ZM96.86 29.26H98.04C98.46 29.26 98.8067 29.25 99.08 29.23C99.3533 29.21 99.57 29.16 99.73 29.08C99.89 28.9933 100.007 28.8567 100.08 28.67C100.153 28.4767 100.2 28.21 100.22 27.87C100.247 27.53 100.26 27.0933 100.26 26.56C100.26 26.0267 100.247 25.5933 100.22 25.26C100.2 24.92 100.15 24.6533 100.07 24.46C99.9967 24.2667 99.88 24.13 99.72 24.05C99.56 23.9633 99.3433 23.91 99.07 23.89C98.8033 23.87 98.46 23.86 98.04 23.86H96.86V29.26ZM102.895 30V23.12H106.055C106.488 23.12 106.831 23.1733 107.085 23.28C107.345 23.38 107.535 23.5267 107.655 23.72C107.781 23.9067 107.865 24.1267 107.905 24.38C107.945 24.6333 107.965 24.9033 107.965 25.19C107.965 25.4367 107.941 25.6933 107.895 25.96C107.855 26.22 107.758 26.4567 107.605 26.67C107.458 26.8833 107.225 27.04 106.905 27.14L108.065 30H107.145L106.005 27.11L106.245 27.23C106.198 27.2433 106.141 27.2533 106.075 27.26C106.008 27.2667 105.918 27.27 105.805 27.27H103.755V30H102.895ZM103.755 26.52H105.685C106.018 26.52 106.278 26.4933 106.465 26.44C106.658 26.3867 106.798 26.3033 106.885 26.19C106.978 26.0767 107.038 25.94 107.065 25.78C107.091 25.6133 107.105 25.4167 107.105 25.19C107.105 24.9633 107.091 24.77 107.065 24.61C107.045 24.4433 106.991 24.3067 106.905 24.2C106.825 24.0867 106.691 24.0033 106.505 23.95C106.325 23.89 106.075 23.86 105.755 23.86H103.755V26.52ZM112.281 30.08C111.748 30.08 111.305 30.0533 110.951 30C110.605 29.94 110.328 29.8367 110.121 29.69C109.921 29.5433 109.775 29.34 109.681 29.08C109.588 28.8133 109.528 28.4767 109.501 28.07C109.475 27.6567 109.461 27.1533 109.461 26.56C109.461 25.9667 109.475 25.4667 109.501 25.06C109.528 24.6467 109.588 24.31 109.681 24.05C109.775 23.7833 109.921 23.5767 110.121 23.43C110.328 23.2833 110.605 23.1833 110.951 23.13C111.305 23.07 111.748 23.04 112.281 23.04C112.815 23.04 113.255 23.07 113.601 23.13C113.955 23.1833 114.231 23.2833 114.431 23.43C114.638 23.5767 114.788 23.7833 114.881 24.05C114.975 24.31 115.035 24.6467 115.061 25.06C115.088 25.4667 115.101 25.9667 115.101 26.56C115.101 27.1533 115.088 27.6567 115.061 28.07C115.035 28.4767 114.975 28.8133 114.881 29.08C114.788 29.34 114.638 29.5433 114.431 29.69C114.231 29.8367 113.955 29.94 113.601 30C113.255 30.0533 112.815 30.08 112.281 30.08ZM112.281 29.34C112.648 29.34 112.951 29.33 113.191 29.31C113.431 29.2833 113.621 29.2267 113.761 29.14C113.901 29.0533 114.008 28.9133 114.081 28.72C114.155 28.52 114.198 28.2467 114.211 27.9C114.231 27.5533 114.241 27.1067 114.241 26.56C114.241 26.0133 114.231 25.5667 114.211 25.22C114.198 24.8733 114.155 24.6033 114.081 24.41C114.008 24.21 113.901 24.0667 113.761 23.98C113.621 23.8933 113.431 23.84 113.191 23.82C112.951 23.7933 112.648 23.78 112.281 23.78C111.915 23.78 111.611 23.7933 111.371 23.82C111.138 23.84 110.948 23.8933 110.801 23.98C110.661 24.0667 110.555 24.21 110.481 24.41C110.415 24.6033 110.371 24.8733 110.351 25.22C110.331 25.5667 110.321 26.0133 110.321 26.56C110.321 27.1067 110.331 27.5533 110.351 27.9C110.371 28.2467 110.415 28.52 110.481 28.72C110.555 28.9133 110.661 29.0533 110.801 29.14C110.948 29.2267 111.138 29.2833 111.371 29.31C111.611 29.33 111.915 29.34 112.281 29.34ZM116.869 30V23.12H117.749L121.319 28.39H121.359V23.12H122.189V30H121.359L117.739 24.63H117.699V30H116.869ZM124.184 30V23.12H128.654V23.86H125.044V26.15H128.184V26.9H125.044V29.26H128.654V30H124.184ZM132.563 30V23.12H133.423V30H132.563ZM135.424 30V23.12H136.584L138.934 28.6H138.984L141.324 23.12H142.484V30H141.644V24.5H141.604L139.254 30H138.624L136.274 24.5H136.234V30H135.424ZM143.766 30L146.366 23.12H147.446L150.036 30H149.146L148.436 28.12H145.346L144.636 30H143.766ZM145.606 27.37H148.176L146.916 24H146.866L145.606 27.37ZM154.002 30.08C153.516 30.08 153.102 30.0533 152.762 30C152.422 29.94 152.142 29.8367 151.922 29.69C151.709 29.5433 151.539 29.34 151.412 29.08C151.292 28.8133 151.206 28.4767 151.152 28.07C151.106 27.6567 151.082 27.1533 151.082 26.56C151.082 25.9667 151.106 25.4667 151.152 25.06C151.206 24.6467 151.296 24.31 151.422 24.05C151.549 23.7833 151.722 23.5767 151.942 23.43C152.162 23.2833 152.439 23.1833 152.772 23.13C153.112 23.07 153.522 23.04 154.002 23.04C154.229 23.04 154.472 23.05 154.732 23.07C154.992 23.09 155.246 23.1133 155.492 23.14C155.746 23.1667 155.972 23.2 156.172 23.24V23.94C155.959 23.9067 155.742 23.88 155.522 23.86C155.302 23.8333 155.096 23.8133 154.902 23.8C154.716 23.7867 154.556 23.78 154.422 23.78C154.009 23.78 153.656 23.79 153.362 23.81C153.076 23.83 152.839 23.8833 152.652 23.97C152.466 24.0567 152.322 24.2 152.222 24.4C152.122 24.5933 152.049 24.8633 152.002 25.21C151.962 25.5567 151.942 26.0067 151.942 26.56C151.942 27.0467 151.956 27.4567 151.982 27.79C152.009 28.1167 152.062 28.3833 152.142 28.59C152.229 28.7967 152.346 28.9567 152.492 29.07C152.646 29.1833 152.846 29.26 153.092 29.3C153.346 29.3333 153.656 29.35 154.022 29.35C154.162 29.35 154.316 29.3467 154.482 29.34C154.649 29.3333 154.812 29.3233 154.972 29.31C155.132 29.2967 155.266 29.2833 155.372 29.27V27.03H153.812V26.3H156.202V29.88C155.982 29.92 155.739 29.9567 155.472 29.99C155.212 30.0167 154.952 30.0367 154.692 30.05C154.439 30.07 154.209 30.08 154.002 30.08ZM158.08 30V23.12H162.55V23.86H158.94V26.15H162.08V26.9H158.94V29.26H162.55V30H158.08ZM164.105 30V23.12H167.265C167.699 23.12 168.042 23.1733 168.295 23.28C168.555 23.38 168.745 23.5267 168.865 23.72C168.992 23.9067 169.075 24.1267 169.115 24.38C169.155 24.6333 169.175 24.9033 169.175 25.19C169.175 25.4367 169.152 25.6933 169.105 25.96C169.065 26.22 168.969 26.4567 168.815 26.67C168.669 26.8833 168.435 27.04 168.115 27.14L169.275 30H168.355L167.215 27.11L167.455 27.23C167.409 27.2433 167.352 27.2533 167.285 27.26C167.219 27.2667 167.129 27.27 167.015 27.27H164.965V30H164.105ZM164.965 26.52H166.895C167.229 26.52 167.489 26.4933 167.675 26.44C167.869 26.3867 168.009 26.3033 168.095 26.19C168.189 26.0767 168.249 25.94 168.275 25.78C168.302 25.6133 168.315 25.4167 168.315 25.19C168.315 24.9633 168.302 24.77 168.275 24.61C168.255 24.4433 168.202 24.3067 168.115 24.2C168.035 24.0867 167.902 24.0033 167.715 23.95C167.535 23.89 167.285 23.86 166.965 23.86H164.965V26.52ZM172.356 30V27.37L169.866 23.12H170.786L172.776 26.51H172.846L174.816 23.12H175.716L173.216 27.37V30H172.356Z" fill="#B8B8B8"/>
</svg>
