<svg width="105" height="111" viewBox="0 0 105 111" fill="none" xmlns="http://www.w3.org/2000/svg">
<path d="M66.448 72.8215C52.8029 62.1629 38.8073 38.2491 33.9072 6.13025C24.4902 11.0023 26.485 31.504 30.5379 40.692C30.6488 41.4967 30.3197 41.5897 29.937 41.3107C23.9928 36.4619 21.3166 32.2983 17.8335 22.0359C12.7581 33.7567 20.7234 48.8325 27.7767 54.777C28.0807 55.0489 28.1594 55.5567 27.7767 55.6891C17.7262 57.0876 9.73222 48.643 6.89947 44.6693C6.05894 52.0015 16.7569 67.6281 28.6959 67.6281C29.075 67.6281 28.9034 68.1718 28.6959 68.5402C27.0363 71.5911 17.9515 73.0003 10.6872 70.0746C13.8562 76.4232 19.0603 77.8861 30.5451 78.0149C30.9385 78.0149 30.8335 78.512 30.5451 78.9377C28.4026 82.0995 24.851 83.4515 21.9717 84.596C25.6056 86.5775 28.8461 86.3522 34.2076 84.4494C35.0124 84.2562 35.2091 84.7605 34.8264 85.0646C33.6031 86.0052 33.6031 87.6577 33.6031 90.5584L0 108.31H12.2144C16.8689 105.627 26.5005 100.16 27.791 99.7505C28.9355 99.3177 29.0178 100.08 28.7102 100.351L18.6203 108.002H29.3218L39.3974 99.7505C39.7873 99.2069 40.9569 99.7505 40.6242 100.359L35.1054 108.285H43.7002L50.2241 98.2984L49.6339 88.3623L90.4898 76.5556C87.2367 72.6318 80.9984 68.2703 74.3347 67.5709C75.7832 68.4722 75.7868 69.6347 75.7868 69.86C75.7353 70.5582 75.1621 70.5372 74.8819 70.4394C73.952 69.1003 72.8849 69.1518 72.4676 69.3449C73.3432 69.7856 73.5406 70.6016 73.5299 70.9545C70.0762 72.8887 67.3696 73.0051 66.448 72.8215Z" fill="#022D55"/>
<path d="M71.4835 66.6913C57.8383 56.0327 43.8427 32.1188 38.9426 0C29.5256 4.87204 31.5204 25.3737 35.5733 34.5617C35.6842 35.3665 35.3551 35.4595 34.9724 35.1805C29.0282 30.3316 26.352 26.1681 22.8689 15.9056C17.7935 27.6265 25.7588 42.7023 32.8121 48.6468C33.1161 48.9186 33.1948 49.4265 32.8121 49.5588C22.7616 50.9573 14.7676 42.5127 11.9349 38.539C11.0943 45.8713 21.7923 61.4979 33.7313 61.4979C34.1104 61.4979 33.9388 62.0416 33.7313 62.41C32.0717 65.4609 22.9869 66.8701 15.7226 63.9444C18.8916 70.293 24.0957 71.7559 35.5805 71.8847C35.9739 71.8847 35.8689 72.3818 35.5805 72.8074C33.438 75.9693 29.8864 77.3213 27.0071 78.4658C30.641 80.4473 33.8815 80.222 39.243 78.3191C40.0478 78.126 40.2445 78.6303 39.8618 78.9343C38.6386 79.875 38.6386 81.5275 38.6386 84.4282L5.0354 102.179H17.2499C21.9043 99.4968 31.5359 94.0295 32.8264 93.6203C33.971 93.1875 34.0532 93.9494 33.7456 94.2212L23.6557 101.872H34.3572L44.4328 93.6203C44.8227 93.0766 45.9923 93.6203 45.6596 94.2283L40.1408 102.154H48.7356L55.2595 92.1682C58.3298 92.48 62.004 91.2108 63.4573 90.5372C65.2314 95.2334 72.1201 97.4975 74.6739 99.5863C73.6409 100.324 73.3731 101.215 73.3684 101.568C73.4256 102.415 74.5081 102.932 75.0423 103.084C75.1224 101.602 75.9531 101.456 76.3585 101.568L80.5004 104.321C80.8724 104.636 80.7186 105.291 80.2178 105.699C81.7475 105.755 82.1216 105.381 82.3087 104.446C82.5269 104.446 82.9634 104.788 82.7751 105.871L83.6299 105.291C84.7208 104.433 84.238 103.657 83.6299 103.084C83.2043 102.684 78.5951 99.3991 76.2262 97.8372C72.9613 95.1533 72.808 89.7491 73.1395 87.3825C73.1681 86.3753 73.5997 85.8302 73.8119 85.6836L92.0853 78.6267C93.2283 78.249 96.9604 77.898 99.5105 79.3743C99.7629 79.8907 99.9392 80.5643 99.6965 81.6956L104.039 76.9457C102.156 74.7796 98.552 73.0745 96.9854 72.4927C94.521 68.2042 87.2424 62.2669 79.3701 61.4407C80.8186 62.342 80.8222 63.5044 80.8222 63.7298C80.7707 64.4279 80.1975 64.407 79.9173 64.3092C78.9874 62.9701 77.9203 63.0216 77.503 63.2147C78.3786 63.6554 78.5761 64.4713 78.5653 64.8242C75.1117 66.7585 72.4051 66.8749 71.4835 66.6913Z" fill="#1384ED"/>
<mask id="path-3-inside-1_146_153" fill="white">
<path d="M50.3775 103.45C54.886 106.296 60.2329 107.945 65.9664 107.945C70.3168 107.945 74.4446 106.996 78.1524 105.294C78.7979 104.998 79.934 104.546 78.6869 105.793C78.4271 106.095 78.3315 106.729 80.0276 106.853C80.277 106.917 80.6511 107.181 80.1523 107.728C75.8723 109.823 71.0573 111 65.9664 111C58.0583 111 50.8159 108.161 45.2104 103.45H50.3775Z"/>
<path d="M65.9664 46.8362C62.9107 46.8362 59.9543 47.2601 57.1534 48.0521L58.9202 50.7452C61.1766 50.1876 63.5368 49.8916 65.9664 49.8916C77.3471 49.8916 87.2046 56.3853 92.0055 65.8546C94.3693 67.3511 96.3647 69.3465 96.9839 70.2507C93.1879 56.743 80.7385 46.8362 65.9664 46.8362Z"/>
<path d="M98.1454 80.2587L95.1007 79.9158C94.8026 88.7031 90.5819 96.5 84.127 101.625L86.2954 103.803C93.2194 98.1831 97.7536 89.7532 98.1454 80.2587Z"/>
</mask>
<path d="M50.3775 103.45L77.0702 61.1712L64.8406 53.45H50.3775V103.45ZM45.2104 103.45V53.45H-92.0005L13.0418 141.728L45.2104 103.45ZM57.1534 48.0521L43.5483 -0.0613251L-22.0435 18.4861L15.3473 75.4793L57.1534 48.0521ZM58.9202 50.7452L17.1141 78.1724L36.5393 107.781L70.9171 99.2847L58.9202 50.7452ZM92.0055 65.8546L47.4098 88.4648L53.6328 100.739L65.2599 108.1L92.0055 65.8546ZM96.9839 70.2507L55.7306 98.5024L145.119 56.7232L96.9839 70.2507ZM95.1007 79.9158L100.697 30.23L46.9627 24.1773L45.1295 78.2207L95.1007 79.9158ZM98.1454 80.2587L148.103 82.3203L150.023 35.7861L103.742 30.573L98.1454 80.2587ZM78.1524 105.294L57.3015 59.8496L57.3015 59.8496L78.1524 105.294ZM78.6869 105.793L43.3316 70.4379L42.024 71.7456L40.8165 73.1462L78.6869 105.793ZM80.0276 106.853L92.3925 58.4064L88.1061 57.3124L83.6941 56.988L80.0276 106.853ZM80.1523 107.728L102.135 152.637L110.687 148.45L117.102 141.414L80.1523 107.728ZM84.127 101.625L53.0358 62.4673L9.2166 97.2597L48.6978 136.906L84.127 101.625ZM86.2954 103.803L50.8662 139.084L82.7356 171.087L117.804 142.625L86.2954 103.803ZM65.9664 57.9446C69.9448 57.9446 73.8152 59.1161 77.0702 61.1712L23.6849 145.729C35.9569 153.477 50.521 157.945 65.9664 157.945V57.9446ZM65.9664 61C70.2395 61 74.2966 62.5818 77.3791 65.1723L13.0418 141.728C27.3353 153.74 45.8771 161 65.9664 161V61ZM50.3775 53.45H45.2104V153.45H50.3775V53.45ZM70.7584 96.1656C69.1751 96.6133 67.5547 96.8362 65.9664 96.8362V-3.16382C58.2666 -3.16382 50.7335 -2.09307 43.5483 -0.0613251L70.7584 96.1656ZM70.9171 99.2847C69.2784 99.6897 67.611 99.8916 65.9664 99.8916V-0.108398C59.4626 -0.108398 53.0748 0.685444 46.9233 2.20583L70.9171 99.2847ZM15.3473 75.4793L17.1141 78.1724L100.726 23.3181L98.9595 20.6249L15.3473 75.4793ZM65.9664 99.8916C57.8683 99.8916 50.8338 95.2181 47.4098 88.4648L136.601 43.2444C123.575 17.5525 96.8259 -0.108398 65.9664 -0.108398V99.8916ZM65.9664 96.8362C57.8659 96.8362 50.9864 91.3852 48.8486 83.7781L145.119 56.7232C135.389 22.1008 103.611 -3.16382 65.9664 -3.16382V96.8362ZM65.2599 108.1C63.5088 106.991 62.2632 105.958 61.3661 105.136C60.8757 104.686 60.2463 104.077 59.5071 103.274C58.9813 102.704 57.4627 101.032 55.7306 98.5024L138.237 41.9989C132.862 34.1503 125.293 27.751 118.751 23.6093L65.2599 108.1ZM89.5041 129.602L92.5488 129.945L103.742 30.573L100.697 30.23L89.5041 129.602ZM57.3015 59.8496C60.0073 58.6081 62.9804 57.9446 65.9664 57.9446V157.945C77.6532 157.945 88.8818 155.383 99.0034 150.739L57.3015 59.8496ZM99.0033 150.739C98.6987 150.879 97.4598 151.449 95.7456 152.071C94.8946 152.38 93.2296 152.959 91.0536 153.502C89.5562 153.876 84.4449 155.133 77.7319 154.946C73.8772 154.838 49.8266 153.833 36.0431 130.196C22.9455 107.735 32.4953 87.0925 33.7591 84.3323C36.3552 78.6623 39.4155 74.8832 40.3436 73.7484C41.6656 72.1319 42.7872 70.9824 43.3316 70.4379L114.042 141.149C114.898 140.292 116.257 138.884 117.753 137.055C118.856 135.707 122.027 131.761 124.682 125.963C126.004 123.074 135.561 102.342 122.429 79.8227C108.611 56.1269 84.486 55.0954 80.5269 54.9847C73.7094 54.7941 68.4641 56.0723 66.8144 56.4844C64.4861 57.0661 62.6504 57.6998 61.6217 58.0733C59.5518 58.8247 57.9289 59.5617 57.3015 59.8496L99.0033 150.739ZM40.8165 73.1462C34.0653 80.9776 17.86 108.142 38.335 136.001C46.2782 146.808 56.3027 151.611 62.0371 153.688C68.0067 155.851 73.2081 156.487 76.361 156.719L83.6941 56.988C85.9991 57.1575 90.5763 57.6677 96.095 59.6667C101.378 61.5805 111.125 66.1829 118.913 76.7786C127.678 88.7054 129.975 102.815 127.731 115.074C125.755 125.864 120.683 133.654 116.557 138.44L40.8165 73.1462ZM58.1693 62.8201C60.5875 61.6364 63.2767 61 65.9664 61V161C78.8378 161 91.1571 158.01 102.135 152.637L58.1693 62.8201ZM67.6626 155.3C61.4984 153.727 43.5459 147.663 34.5702 127.168C22.9518 100.639 37.8824 79.8783 43.203 74.0423L117.102 141.414C122.921 135.031 137.914 113.865 126.171 87.0513C117.07 66.2717 98.8062 60.0434 92.3925 58.4064L67.6626 155.3ZM45.1295 78.2207C45.3499 71.7221 48.5162 66.0559 53.0358 62.4673L115.218 140.783C132.648 126.944 144.255 105.684 145.072 81.6109L45.1295 78.2207ZM48.1879 78.1972C48.4127 72.7501 51.0544 68.0091 54.7868 64.9799L117.804 142.625C135.384 128.357 147.095 106.756 148.103 82.3203L48.1879 78.1972ZM48.6978 136.906L50.8662 139.084L121.725 68.5214L119.556 66.3439L48.6978 136.906Z" fill="#1384ED" mask="url(#path-3-inside-1_146_153)"/>
<path d="M92.8472 72.5505C91.1012 71.4905 89.6047 71.4281 88.7317 71.4281C88.9499 69.7445 90.6335 69.7445 90.6335 69.7445C94.406 71.0852 93.2836 72.5505 92.8472 72.5505Z" fill="black"/>
</svg>
