<svg width="18" height="18" viewBox="0 0 18 18" fill="none" xmlns="http://www.w3.org/2000/svg">
<path d="M7.22317 7.22317H10.7768M7.22317 7.22317V10.7768M7.22317 7.22317L4.11371 4.11371M10.7768 7.22317V10.7768M10.7768 7.22317L13.8863 4.11371M10.7768 10.7768H7.22317M10.7768 10.7768L13.8863 13.8863M7.22317 10.7768L4.11371 13.8863M7.18763 3.6695C7.10593 3.09787 6.86666 2.56027 6.49665 2.11696C6.12663 1.67364 5.64047 1.34212 5.09265 1.15953C4.54483 0.976948 3.95699 0.950514 3.395 1.08319C2.833 1.21587 2.31905 1.50242 1.91074 1.91074C1.50242 2.31905 1.21587 2.833 1.08319 3.395C0.950514 3.95699 0.976948 4.54483 1.15953 5.09265C1.34212 5.64047 1.67364 6.12663 2.11696 6.49665C2.56027 6.86666 3.09787 7.10593 3.6695 7.18763M14.3305 7.18763C14.9021 7.10593 15.4397 6.86666 15.883 6.49665C16.3264 6.12663 16.6579 5.64047 16.8405 5.09265C17.023 4.54483 17.0495 3.95699 16.9168 3.395C16.7841 2.833 16.4976 2.31905 16.0893 1.91074C15.6809 1.50242 15.167 1.21587 14.605 1.08319C14.043 0.950514 13.4552 0.976948 12.9073 1.15953C12.3595 1.34212 11.8734 1.67364 11.5034 2.11696C11.1333 2.56027 10.8941 3.09787 10.8124 3.6695M10.8124 14.3305C10.8941 14.9021 11.1333 15.4397 11.5034 15.883C11.8734 16.3264 12.3595 16.6579 12.9073 16.8405C13.4552 17.0231 14.043 17.0495 14.605 16.9168C15.167 16.7841 15.6809 16.4976 16.0893 16.0893C16.4976 15.6809 16.7841 15.167 16.9168 14.605C17.0495 14.043 17.023 13.4552 16.8405 12.9073C16.6579 12.3595 16.3264 11.8734 15.883 11.5034C15.4397 11.1333 14.9021 10.8941 14.3305 10.8124M3.6695 10.8124C3.09787 10.8941 2.56027 11.1333 2.11696 11.5034C1.67364 11.8734 1.34212 12.3595 1.15953 12.9073C0.976948 13.4552 0.950514 14.043 1.08319 14.605C1.21587 15.167 1.50242 15.6809 1.91074 16.0893C2.31905 16.4976 2.833 16.7841 3.395 16.9168C3.95699 17.0495 4.54483 17.0231 5.09265 16.8405C5.64047 16.6579 6.12663 16.3264 6.49665 15.883C6.86666 15.4397 7.10593 14.9021 7.18763 14.3305" stroke="#D3D3D3" stroke-width="2" stroke-linecap="round" stroke-linejoin="round"/>
</svg>
