<svg width="105" height="105" viewBox="0 0 105 105" fill="none" xmlns="http://www.w3.org/2000/svg">
<path d="M11.9106 60.947C9.99993 72.5 19.5273 93.4355 45.4653 92.5215" stroke="#F8AF3D" stroke-width="5" stroke-linecap="round"/>
<path d="M23.1465 58.8589C23.9321 65.9289 29.7298 80.2469 46.6347 80.9614" stroke="#F8AF3D" stroke-width="5" stroke-linecap="round"/>
<path d="M17.3616 3.67212L11.6325 9.87181C9.75831 11.8999 9.86929 15.078 11.8803 16.9704L31.4414 35.3774C33.4525 37.2698 36.6021 37.1598 38.4762 35.1317L44.2054 28.932C46.0795 26.904 45.9686 23.7258 43.9575 21.8334L24.3964 3.42647C22.3854 1.53408 19.2358 1.64406 17.3616 3.67212Z" fill="white"/>
<path d="M74.7625 56.9592L69.0333 63.1589C67.1592 65.187 67.2702 68.3651 69.2812 70.2575L88.8423 88.6645C90.8534 90.5569 94.0029 90.4469 95.8771 88.4188L101.606 82.2191C103.48 80.1911 103.369 77.0129 101.358 75.1205L81.7973 56.7136C79.7862 54.8212 76.6367 54.9312 74.7625 56.9592Z" fill="white"/>
<path fill-rule="evenodd" clip-rule="evenodd" d="M41.7605 63.7152L40.1201 62.1717C34.087 56.4945 33.7541 46.9601 39.3765 40.8759L59.6931 18.8908C65.3155 12.8067 74.7642 12.4767 80.7974 18.1539L82.4377 19.6974C88.4708 25.3746 88.8038 34.9091 83.1813 40.9932L62.8648 62.9783C57.2423 69.0625 47.7936 69.3924 41.7605 63.7152ZM56.2712 56.7233L75.6169 35.7888C76.1665 35.194 77.0902 35.1618 77.68 35.7168C78.2697 36.2717 78.3023 37.2038 77.7527 37.7985L58.4069 58.7331C57.8573 59.3278 56.9336 59.3601 56.3439 58.8051C55.7541 58.2501 55.7215 57.3181 56.2712 56.7233Z" fill="white"/>
</svg>
