<svg width="116" height="105" viewBox="0 0 116 105" fill="none" xmlns="http://www.w3.org/2000/svg">
<path d="M20.0779 11.777C20.0779 9.89058 18.5797 8.36133 16.7316 8.36133C14.8835 8.36133 13.3853 9.89058 13.3853 11.777V32.271C13.3853 34.1574 14.8835 35.6867 16.7316 35.6867C18.5797 35.6867 20.0779 34.1574 20.0779 32.271V11.777Z" fill="white"/>
<path d="M53.5413 11.777C53.5413 9.89058 52.0431 8.36133 50.195 8.36133C48.3468 8.36133 46.8486 9.89058 46.8486 11.777V32.271C46.8486 34.1574 48.3468 35.6867 50.195 35.6867C52.0431 35.6867 53.5413 34.1574 53.5413 32.271V11.777Z" fill="white"/>
<path fill-rule="evenodd" clip-rule="evenodd" d="M1.95987e-06 96.7199V53.0397C1.95987e-06 53.0397 -0.0447382 42.3024 13.3853 38.4794C26.8154 34.6564 40.1358 34.8561 53.5414 38.4794C66.9466 42.1027 66.9264 53.0397 66.9264 53.0397V96.7199C66.9264 96.7199 66.9264 104 53.5414 104H13.3853C2.4058e-06 104 1.95987e-06 96.7199 1.95987e-06 96.7199ZM30.1167 57.8886C30.1167 51.2861 24.873 45.9337 18.4045 45.9337C11.9361 45.9337 6.69237 51.2861 6.69237 57.8886C6.69237 64.491 11.9361 69.8434 18.4045 69.8434C24.873 69.8434 30.1167 64.491 30.1167 57.8886ZM48.5221 45.4038C54.9905 45.4038 60.2342 50.7561 60.2342 57.3586C60.2342 63.9611 54.9905 69.3135 48.5221 69.3135C42.0536 69.3135 36.8099 63.9611 36.8099 57.3586C36.8099 50.7561 42.0536 45.4038 48.5221 45.4038Z" fill="white"/>
<path d="M53.5412 57.8886C53.5412 55.059 51.2939 52.7651 48.5217 52.7651C45.7495 52.7651 43.5022 55.059 43.5022 57.8886C43.5022 60.7183 45.7495 63.0121 48.5217 63.0121C51.2939 63.0121 53.5412 60.7183 53.5412 57.8886Z" fill="white"/>
<path d="M23.4242 57.8886C23.4242 55.059 21.1769 52.7651 18.4047 52.7651C15.6326 52.7651 13.3853 55.059 13.3853 57.8886C13.3853 60.7183 15.6326 63.0121 18.4047 63.0121C21.1769 63.0121 23.4242 60.7183 23.4242 57.8886Z" fill="white"/>
<path d="M61.0085 10.8537C88.8267 7.69666 100.433 29.088 97.24 50.9475M61.9288 23.6413C79.8119 22.3002 87.5739 36.9021 83.7676 50.2454" stroke="#F8AF3D" stroke-width="5" stroke-linecap="round"/>
</svg>
