<svg width="30" height="26" viewBox="0 0 30 26" fill="none" xmlns="http://www.w3.org/2000/svg">
<path fill-rule="evenodd" clip-rule="evenodd" d="M4.25712 25.5064C4.25712 25.5064 8.69538 18.6647 8.69538 16.5001C8.69538 14.3354 6.79728 12 4.27401 12C1.75075 12 0 14.3354 0 16.5001C0 18.6647 4.25712 25.5064 4.25712 25.5064ZM4.36824 19.1754C5.71684 19.1754 6.8101 18.0849 6.8101 16.7398C6.8101 15.3947 5.71684 14.3042 4.36824 14.3042C3.01963 14.3042 1.92637 15.3947 1.92637 16.7398C1.92637 18.0849 3.01963 19.1754 4.36824 19.1754Z" fill="#1384EC"/>
<path d="M5.50129 17.1136L5.87629 17.0113C5.90354 16.8442 5.90354 16.6738 5.87629 16.5068L5.50129 16.4045C5.48344 16.3996 5.46694 16.3907 5.45304 16.3784C5.43909 16.3662 5.42814 16.351 5.42089 16.334C5.41369 16.3169 5.41044 16.2985 5.41139 16.28C5.41229 16.2615 5.41739 16.2434 5.42629 16.2272L5.61724 15.8863C5.52264 15.7508 5.40494 15.6331 5.26949 15.5386L4.92859 15.7295L4.87404 15.7431C4.84659 15.7442 4.81959 15.736 4.79734 15.72C4.77509 15.7039 4.75889 15.6808 4.75129 15.6545L4.64901 15.2795C4.48193 15.2522 4.31154 15.2522 4.14445 15.2795L4.04218 15.6545C4.03458 15.6808 4.01836 15.7039 3.99611 15.72C3.97386 15.736 3.94687 15.7442 3.91945 15.7431L3.8649 15.7295L3.52399 15.5386C3.38853 15.6331 3.27081 15.7508 3.17625 15.8863L3.36717 16.2272C3.37606 16.2434 3.38117 16.2615 3.3821 16.28C3.38304 16.2985 3.37977 16.3169 3.37256 16.334C3.36534 16.351 3.35436 16.3662 3.34044 16.3784C3.32652 16.3907 3.31001 16.3996 3.29216 16.4045L2.91715 16.5068C2.88992 16.6738 2.88992 16.8442 2.91715 17.0113L3.29216 17.1136C3.31001 17.1185 3.32652 17.1274 3.34044 17.1396C3.35436 17.1518 3.36534 17.167 3.37256 17.1841C3.37977 17.2011 3.38304 17.2196 3.3821 17.2381C3.38117 17.2566 3.37606 17.2746 3.36717 17.2909L3.17625 17.6318C3.27081 17.7672 3.38853 17.885 3.52399 17.9795L3.8649 17.7886L3.91945 17.775C3.94687 17.7739 3.97386 17.782 3.99611 17.7981C4.01836 17.8142 4.03458 17.8372 4.04218 17.8636L4.14445 18.2386C4.31154 18.2658 4.48193 18.2658 4.64901 18.2386L4.75129 17.8636C4.75889 17.8372 4.77509 17.8142 4.79734 17.7981C4.81959 17.782 4.84659 17.7739 4.87404 17.775L4.92859 17.7886L5.26949 17.9795C5.40494 17.885 5.52264 17.7672 5.61724 17.6318L5.42629 17.2909C5.41739 17.2746 5.41229 17.2566 5.41139 17.2381C5.41044 17.2196 5.41369 17.2011 5.42089 17.1841C5.42814 17.167 5.43909 17.1518 5.45304 17.1396C5.46694 17.1274 5.48344 17.1185 5.50129 17.1136ZM4.39674 17.3727C4.27536 17.3727 4.15672 17.3367 4.05581 17.2693C3.95489 17.2018 3.87624 17.106 3.82979 16.9939C3.78335 16.8817 3.7712 16.7583 3.79487 16.6393C3.81855 16.5203 3.877 16.4109 3.96282 16.3251C4.04864 16.2393 4.15798 16.1809 4.27701 16.1572C4.39605 16.1335 4.51944 16.1456 4.63157 16.1921C4.74369 16.2385 4.83954 16.3172 4.90699 16.4181C4.97439 16.519 5.01039 16.6377 5.01039 16.759C5.01039 16.9218 4.94574 17.0779 4.83064 17.1929C4.71557 17.308 4.55948 17.3727 4.39674 17.3727Z" fill="white"/>
<path d="M23.9429 12.8135H15.4209C9.73949 12.8135 9.73949 18.4386 15.4209 18.4386H22.996C28.6774 18.4386 28.6774 24.0637 22.996 24.0637H5.9519" stroke="white"/>
<path fill-rule="evenodd" clip-rule="evenodd" d="M25.5618 13.5064C25.5618 13.5064 30.0001 6.66473 30.0001 4.50009C30.0001 2.33545 28.102 0 25.5787 0C23.0554 0 21.3047 2.33545 21.3047 4.50009C21.3047 6.66473 25.5618 13.5064 25.5618 13.5064ZM25.6729 7.17539C27.0215 7.17539 28.1148 6.08495 28.1148 4.73981C28.1148 3.39467 27.0215 2.30422 25.6729 2.30422C24.3243 2.30422 23.2311 3.39467 23.2311 4.73981C23.2311 6.08495 24.3243 7.17539 25.6729 7.17539Z" fill="#1384EC"/>
<path d="M26.806 5.11358L27.181 5.01131C27.2082 4.84423 27.2082 4.67383 27.181 4.50675L26.806 4.40448C26.7881 4.39956 26.7716 4.39066 26.7577 4.37845C26.7438 4.36624 26.7328 4.35104 26.7256 4.33399C26.7184 4.31694 26.7151 4.29847 26.7161 4.27998C26.717 4.26148 26.7221 4.24344 26.731 4.2272L26.9219 3.88629C26.8273 3.75083 26.7096 3.63311 26.5742 3.53855L26.2333 3.72947L26.1787 3.7431C26.1513 3.74418 26.1243 3.73603 26.102 3.71996C26.0798 3.70389 26.0636 3.68083 26.056 3.65446L25.9537 3.27946C25.7866 3.25222 25.6162 3.25222 25.4491 3.27946L25.3469 3.65446C25.3393 3.68083 25.323 3.70389 25.3008 3.71996C25.2786 3.73603 25.2516 3.74418 25.2241 3.7431L25.1696 3.72947L24.8287 3.53855C24.6932 3.63311 24.5755 3.75083 24.4809 3.88629L24.6719 4.2272C24.6807 4.24344 24.6859 4.26148 24.6868 4.27998C24.6877 4.29847 24.6845 4.31694 24.6772 4.33399C24.67 4.35104 24.659 4.36624 24.6451 4.37845C24.6312 4.39066 24.6147 4.39956 24.5968 4.40448L24.2218 4.50675C24.1946 4.67383 24.1946 4.84423 24.2218 5.01131L24.5968 5.11358C24.6147 5.11851 24.6312 5.12741 24.6451 5.13961C24.659 5.15182 24.67 5.16702 24.6772 5.18407C24.6845 5.20113 24.6877 5.21959 24.6868 5.23809C24.6859 5.25658 24.6807 5.27462 24.6719 5.29086L24.4809 5.63178C24.5755 5.76723 24.6932 5.88495 24.8287 5.97951L25.1696 5.7886L25.2241 5.77496C25.2516 5.77389 25.2786 5.78204 25.3008 5.7981C25.323 5.81417 25.3393 5.83723 25.3469 5.8636L25.4491 6.23861C25.6162 6.26584 25.7866 6.26584 25.9537 6.23861L26.056 5.8636C26.0636 5.83723 26.0798 5.81417 26.102 5.7981C26.1243 5.78204 26.1513 5.77389 26.1787 5.77496L26.2333 5.7886L26.5742 5.97951C26.7096 5.88495 26.8273 5.76723 26.9219 5.63178L26.731 5.29086C26.7221 5.27462 26.717 5.25658 26.7161 5.23809C26.7151 5.21959 26.7184 5.20113 26.7256 5.18407C26.7328 5.16702 26.7438 5.15182 26.7577 5.13961C26.7716 5.12741 26.7881 5.11851 26.806 5.11358ZM25.7014 5.37268C25.5801 5.37268 25.4614 5.33669 25.3605 5.26926C25.2596 5.20183 25.1809 5.10599 25.1345 4.99386C25.088 4.88174 25.0759 4.75835 25.0996 4.63931C25.1232 4.52028 25.1817 4.41094 25.2675 4.32512C25.3533 4.2393 25.4627 4.18085 25.5817 4.15717C25.7007 4.1335 25.8241 4.14565 25.9363 4.19209C26.0484 4.23854 26.1442 4.31719 26.2117 4.41811C26.2791 4.51902 26.3151 4.63766 26.3151 4.75903C26.3151 4.92178 26.2504 5.07787 26.1353 5.19295C26.0203 5.30803 25.8642 5.37268 25.7014 5.37268Z" fill="white"/>
</svg>
