<svg width="30" height="25" viewBox="0 0 30 25" fill="none" xmlns="http://www.w3.org/2000/svg">
<path d="M23.9427 12.8135H15.4206C9.73924 12.8135 9.73924 18.4386 15.4206 18.4386H22.9958C28.6772 18.4386 28.6772 24.0637 22.9958 24.0637H5.95166" stroke="white"/>
<path fill-rule="evenodd" clip-rule="evenodd" d="M25.5616 13.5064C25.5616 13.5064 29.9998 6.66473 29.9998 4.50009C29.9998 2.33545 28.1017 0 25.5785 0C23.0552 0 21.3044 2.33545 21.3044 4.50009C21.3044 6.66473 25.5616 13.5064 25.5616 13.5064ZM25.6727 7.17539C27.0213 7.17539 28.1145 6.08495 28.1145 4.73981C28.1145 3.39467 27.0213 2.30422 25.6727 2.30422C24.3241 2.30422 23.2308 3.39467 23.2308 4.73981C23.2308 6.08495 24.3241 7.17539 25.6727 7.17539Z" fill="#1384EC"/>
<path fill-rule="evenodd" clip-rule="evenodd" d="M4.25712 24.9298C4.25712 24.9298 8.69538 18.0881 8.69538 15.9234C8.69538 13.7588 6.79728 11.4233 4.27401 11.4233C1.75075 11.4233 0 13.7588 0 15.9234C0 18.0881 4.25712 24.9298 4.25712 24.9298ZM4.36779 18.2874C5.71639 18.2874 6.80965 17.197 6.80965 15.8519C6.80965 14.5067 5.71639 13.4163 4.36779 13.4163C3.01918 13.4163 1.92592 14.5067 1.92592 15.8519C1.92592 17.197 3.01918 18.2874 4.36779 18.2874Z" fill="#1384EC"/>
</svg>
