<svg width="55" height="103" viewBox="0 0 55 103" fill="none" xmlns="http://www.w3.org/2000/svg">
<path d="M12.6001 5C12.6001 2.23857 14.7641 0 17.4334 0H36.7668C39.4361 0 41.6001 2.23857 41.6001 5L41.6001 12C41.6001 14.7614 39.4361 15 36.7668 15H17.4334C14.7641 15 12.6001 14.7614 12.6001 12V5Z" fill="white"/>
<path d="M52.8141 15.9934L52.9934 97.4934C52.997 99.1528 51.6578 100.5 49.9984 100.5H4.98579C3.32894 100.5 2 99.1643 2 97.5075V15.9687C2 14.3118 3.33827 13 4.99512 13H49.8283C51.4826 13 52.8105 14.3391 52.8141 15.9934Z" stroke="white" stroke-width="4" stroke-linejoin="round"/>
</svg>
