<svg width="96" height="88" viewBox="0 0 96 88" fill="none" xmlns="http://www.w3.org/2000/svg">
<g clip-path="url(#clip0_33_393)">
<path d="M17.3644 9.13143C17.3644 7.53305 16.0687 6.2373 14.4703 6.2373C12.8719 6.2373 11.5762 7.53305 11.5762 9.13143V26.4962C11.5762 28.0945 12.8719 29.3903 14.4703 29.3903C16.0687 29.3903 17.3644 28.0945 17.3644 26.4962V9.13143Z" fill="white"/>
<path d="M46.3058 9.13143C46.3058 7.53305 45.0101 6.2373 43.4117 6.2373C41.8133 6.2373 40.5176 7.53305 40.5176 9.13143V26.4962C40.5176 28.0945 41.8133 29.3903 43.4117 29.3903C45.0101 29.3903 46.3058 28.0945 46.3058 26.4962V9.13143Z" fill="white"/>
<path fill-rule="evenodd" clip-rule="evenodd" d="M1.69502e-06 81.1042V44.0936C1.69502e-06 44.0936 -0.0386925 34.9958 11.5765 31.7565C23.1917 28.5173 34.712 28.6865 46.306 31.7565C57.8998 34.8266 57.8823 44.0936 57.8823 44.0936V81.1042C57.8823 81.1042 57.8823 87.2727 46.306 87.2727H11.5765C2.08069e-06 87.2727 1.69502e-06 81.1042 1.69502e-06 81.1042ZM26.0469 48.2021C26.0469 42.6078 21.5118 38.0727 15.9174 38.0727C10.3231 38.0727 5.788 42.6078 5.788 48.2021C5.788 53.7964 10.3231 58.3315 15.9174 58.3315C21.5118 58.3315 26.0469 53.7964 26.0469 48.2021ZM41.965 37.6236C47.5594 37.6236 52.0945 42.1587 52.0945 47.7531C52.0945 53.3474 47.5594 57.8825 41.965 57.8825C36.3707 57.8825 31.8356 53.3474 31.8356 47.7531C31.8356 42.1587 36.3707 37.6236 41.965 37.6236Z" fill="white"/>
<path d="M46.3064 48.2023C46.3064 45.8047 44.3628 43.8611 41.9652 43.8611C39.5676 43.8611 37.624 45.8047 37.624 48.2023C37.624 50.5998 39.5676 52.5435 41.9652 52.5435C44.3628 52.5435 46.3064 50.5998 46.3064 48.2023Z" fill="white"/>
<path d="M20.2585 48.2023C20.2585 45.8047 18.3149 43.8611 15.9174 43.8611C13.5198 43.8611 11.5762 45.8047 11.5762 48.2023C11.5762 50.5998 13.5198 52.5435 15.9174 52.5435C18.3149 52.5435 20.2585 50.5998 20.2585 48.2023Z" fill="white"/>
<path d="M52.7646 8.34916C76.8236 5.67417 86.8612 23.7992 84.0999 42.3209M53.5606 19.1842C69.0271 18.0478 75.7401 30.4202 72.4481 41.726" stroke="#1384EC" stroke-width="4" stroke-linecap="round"/>
</g>
<defs>
<clipPath id="clip0_33_393">
<rect width="96" height="87.2727" fill="white"/>
</clipPath>
</defs>
</svg>
