<svg width="25" height="25" viewBox="0 0 25 25" fill="none" xmlns="http://www.w3.org/2000/svg">
<g clip-path="url(#clip0_21_151)">
<path d="M21.0938 11.875C20.7486 11.875 20.4688 12.1548 20.4688 12.5C20.4688 12.8451 20.7486 13.125 21.0938 13.125V11.875ZM24.2188 11.875H21.0938V13.125H24.2188V11.875Z" fill="#1AAA65"/>
<path d="M13.125 21.0938C13.125 20.7486 12.8451 20.4688 12.5 20.4688C12.1548 20.4688 11.875 20.7486 11.875 21.0938H13.125ZM13.125 24.2188V21.0938H11.875V24.2188H13.125Z" fill="#1AAA65"/>
<path d="M5.80811 6.69192C6.05218 6.93601 6.44791 6.93601 6.69198 6.69192C6.93607 6.44784 6.93607 6.05212 6.69198 5.80804L5.80811 6.69192ZM3.46436 4.34817L5.80811 6.69192L6.69198 5.80804L4.34823 3.46429L3.46436 4.34817Z" fill="#1AAA65"/>
<path d="M11.875 3.90625C11.875 4.25143 12.1548 4.53125 12.5 4.53125C12.8451 4.53125 13.125 4.25143 13.125 3.90625H11.875ZM11.875 0.78125V3.90625H13.125V0.78125H11.875Z" fill="#1AAA65"/>
<path d="M3.90625 13.125C4.25143 13.125 4.53125 12.8451 4.53125 12.5C4.53125 12.1548 4.25143 11.875 3.90625 11.875V13.125ZM0.78125 13.125H3.90625V11.875H0.78125V13.125Z" fill="#1AAA65"/>
<path d="M18.308 5.80804C18.064 6.05212 18.064 6.44784 18.308 6.69192C18.5521 6.93601 18.9479 6.93601 19.192 6.69192L18.308 5.80804ZM20.6518 3.46429L18.308 5.80804L19.192 6.69192L21.5357 4.34817L20.6518 3.46429Z" fill="#1AAA65"/>
<path d="M19.192 18.308C18.9479 18.064 18.5521 18.064 18.308 18.308C18.064 18.5521 18.064 18.9479 18.308 19.192L19.192 18.308ZM18.308 19.192L20.6518 21.5357L21.5357 20.6518L19.192 18.308L18.308 19.192Z" fill="#1AAA65"/>
<path d="M6.69198 19.192C6.93607 18.9479 6.93607 18.5521 6.69198 18.308C6.44791 18.064 6.05218 18.064 5.80811 18.308L6.69198 19.192ZM5.80811 18.308L3.46436 20.6518L4.34823 21.5357L6.69198 19.192L5.80811 18.308Z" fill="#1AAA65"/>
<path d="M12.5 1.125C18.7822 1.125 23.875 6.21776 23.875 12.5C23.875 18.7822 18.7822 23.875 12.5 23.875C6.21776 23.875 1.125 18.7822 1.125 12.5C1.125 6.21776 6.21776 1.125 12.5 1.125Z" stroke="white"/>
<path d="M6.27344 17.4621L12.3106 9.16608L15.1249 12.2732L6.27344 17.4621Z" fill="#1AAA65"/>
</g>
<defs>
<clipPath id="clip0_21_151">
<rect width="25" height="25" fill="white"/>
</clipPath>
</defs>
</svg>
