<svg width="131" height="111" viewBox="0 0 131 111" fill="none" xmlns="http://www.w3.org/2000/svg">
<path d="M77.0497 73.4765C76.063 72.4902 74.4633 72.4902 73.4765 73.4765C72.4902 74.4633 72.4902 76.063 73.4765 77.0497L77.0497 73.4765ZM73.4765 77.0497L82.9502 86.5234L85 82L77.0497 73.4765L73.4765 77.0497Z" fill="white"/>
<path d="M84.7368 47.4739C83.3417 47.4739 82.2104 48.605 82.2104 50.0002C82.2104 51.3952 83.3417 52.5265 84.7368 52.5265V47.4739ZM97.3683 47.4739H84.7368V52.5265H97.3683V47.4739Z" fill="white"/>
<path d="M52.5265 84.7368C52.5265 83.3417 51.3952 82.2104 50.0002 82.2104C48.605 82.2104 47.4739 83.3417 47.4739 84.7368H52.5265ZM52.5265 97.3683V84.7368H47.4739V97.3683H52.5265Z" fill="white"/>
<path d="M22.9505 26.5232C23.9371 27.5098 25.5366 27.5098 26.5232 26.5232C27.5098 25.5366 27.5098 23.9371 26.5232 22.9505L22.9505 26.5232ZM13.4768 17.0495L22.9505 26.5232L26.5232 22.9505L17.0495 13.4768L13.4768 17.0495Z" fill="white"/>
<path d="M47.4739 15.2632C47.4739 16.6584 48.605 17.7895 50.0002 17.7895C51.3952 17.7895 52.5265 16.6584 52.5265 15.2632H47.4739ZM47.4739 2.63159V15.2632H52.5265V2.63159H47.4739Z" fill="white"/>
<path d="M15.2632 52.5265C16.6584 52.5265 17.7895 51.3952 17.7895 50.0002C17.7895 48.605 16.6584 47.4739 15.2632 47.4739V52.5265ZM2.63159 52.5265H15.2632V47.4739H2.63159V52.5265Z" fill="white"/>
<path d="M73.4765 22.9505C72.4902 23.9371 72.4902 25.5366 73.4765 26.5232C74.4633 27.5098 76.063 27.5098 77.0497 26.5232L73.4765 22.9505ZM82.9502 13.4768L73.4765 22.9505L77.0497 26.5232L86.5234 17.0495L82.9502 13.4768Z" fill="white"/>
<path d="M26.5232 77.0497C27.5098 76.063 27.5098 74.4633 26.5232 73.4765C25.5366 72.4902 23.9371 72.4902 22.9505 73.4765L26.5232 77.0497ZM22.9505 73.4765L13.4768 82.9502L17.0495 86.5234L26.5232 77.0497L22.9505 73.4765Z" fill="white"/>
<path d="M24.5776 69.9378L48.9805 36.4043L60.356 48.9636L24.5776 69.9378Z" fill="white"/>
<path fill-rule="evenodd" clip-rule="evenodd" d="M50 4C24.5949 4 4 24.5949 4 50C4 75.4051 24.5949 96 50 96C51.9904 96 53.9513 95.8736 55.875 95.6283L55.8792 99.658C53.9509 99.8839 51.989 100 50 100C22.3858 100 0 77.6142 0 50C0 22.3858 22.3858 0 50 0C77.6142 0 100 22.3858 100 50C100 54.46 99.4161 58.7836 98.3204 62.8985C90.9429 67.4056 90.0042 74.1654 90.1371 79.6944C90.1379 79.7274 90.1485 79.7561 90.1672 79.781C88.8834 81.5097 87.4907 83.1526 85.9991 84.6997L86.001 78.6373C92.2598 70.7795 96 60.8265 96 50C96 24.5949 75.4051 4 50 4ZM91.4069 78.0351C94.1442 74 96.3072 69.5438 97.7784 64.7837C92.037 68.6824 91.1488 72.668 91.4069 78.0351ZM85.022 84.9998L85.0218 85.6858C81.2056 89.4314 76.7912 92.5697 71.9351 94.9442V92.0422V91.999V91.0422H70.9969H70.9965H70.9351H70.7953C76.2553 88.2703 81.0879 84.4408 85.0236 79.8234L85.022 84.9998ZM68.7899 91.9999C65.0371 93.6814 61.0179 94.8747 56.8131 95.4989L56.8174 99.5391C61.8169 98.8575 66.5813 97.4369 70.9969 95.3909V92.999V92.0422V91.999L70.9351 91.999L69.9969 91.9994L69.5 91.9996L68.7899 91.9999Z" fill="white"/>
<path d="M85.029 62.765V110H71.897V91.039H55.884V110H42.752V62.765H55.884V80.52H71.897V62.765H85.029ZM110.366 110.469C104.872 110.469 100.361 109.174 96.832 106.583C93.3033 103.948 91.405 100.196 91.137 95.327H105.14C105.274 96.9797 105.765 98.1857 106.614 98.945C107.463 99.7043 108.557 100.084 109.897 100.084C111.103 100.084 112.086 99.7937 112.845 99.213C113.649 98.5877 114.051 97.739 114.051 96.667C114.051 95.2823 113.403 94.2103 112.108 93.451C110.813 92.6917 108.713 91.843 105.81 90.905C102.728 89.8777 100.227 88.895 98.306 87.957C96.43 86.9743 94.7773 85.5673 93.348 83.736C91.9633 81.86 91.271 79.4257 91.271 76.433C91.271 73.3957 92.0303 70.805 93.549 68.661C95.0677 66.4723 97.167 64.8197 99.847 63.703C102.527 62.5863 105.564 62.028 108.959 62.028C114.453 62.028 118.83 63.3233 122.091 65.914C125.396 68.46 127.161 72.0557 127.384 76.701H113.113C113.068 75.2717 112.622 74.1997 111.773 73.485C110.969 72.7703 109.919 72.413 108.624 72.413C107.641 72.413 106.837 72.7033 106.212 73.284C105.587 73.8647 105.274 74.691 105.274 75.763C105.274 76.6563 105.609 77.438 106.279 78.108C106.994 78.7333 107.865 79.2917 108.892 79.783C109.919 80.2297 111.438 80.8103 113.448 81.525C116.441 82.5523 118.897 83.5797 120.818 84.607C122.783 85.5897 124.458 86.9967 125.843 88.828C127.272 90.6147 127.987 92.8927 127.987 95.662C127.987 98.476 127.272 101 125.843 103.233C124.458 105.466 122.426 107.231 119.746 108.526C117.111 109.821 113.984 110.469 110.366 110.469Z" fill="#1384EC"/>
</svg>
