<svg width="55" height="103" viewBox="0 0 55 103" fill="none" xmlns="http://www.w3.org/2000/svg">
<path d="M8 80.8437C8 79.5495 9.09132 78.5 10.4375 78.5H44.5625C45.9087 78.5 47 79.5495 47 80.8437V91.1563C47 92.4505 45.9087 93.5 44.5625 93.5H10.4375C9.09132 93.5 8 92.4505 8 91.1563V80.8437Z" fill="#1AAA65"/>
<path d="M8 61.3438C8 60.0495 9.24722 59 10.7857 59H44.2143C45.7528 59 47 60.0495 47 61.3438V71.6562C47 72.9505 45.7528 74 44.2143 74H10.7857C9.24722 74 8 72.9505 8 71.6562V61.3438Z" fill="#1AAA65"/>
<path d="M8 22.3437C8 21.0493 9.09132 20 10.4375 20H44.5625C45.9087 20 47 21.0493 47 22.3437V32.6562C47 33.9507 45.9087 35 44.5625 35H10.4375C9.09132 35 8 33.9507 8 32.6562V22.3437Z" fill="#1AAA65"/>
<path d="M8 41.8438C8 40.5493 9.09132 39.5 10.4375 39.5H44.5625C45.9087 39.5 47 40.5493 47 41.8438V52.1562C47 53.4505 45.9087 54.5 44.5625 54.5H10.4375C9.09132 54.5 8 53.4505 8 52.1562V41.8438Z" fill="#1AAA65"/>
<path d="M12.6001 5C12.6001 2.23857 14.7641 0 17.4334 0H36.7668C39.4361 0 41.6001 2.23857 41.6001 5L41.6001 12C41.6001 14.7614 39.4361 15 36.7668 15H17.4334C14.7641 15 12.6001 14.7614 12.6001 12V5Z" fill="white"/>
<path d="M52.8141 15.9934L52.9934 97.4934C52.997 99.1528 51.6578 100.5 49.9984 100.5H4.98579C3.32894 100.5 2 99.1643 2 97.5075V15.9687C2 14.3118 3.33827 13 4.99512 13H49.8283C51.4826 13 52.8105 14.3391 52.8141 15.9934Z" stroke="white" stroke-width="4" stroke-linejoin="round"/>
</svg>
