<svg width="96" height="106" viewBox="0 0 96 106" fill="none" xmlns="http://www.w3.org/2000/svg">
<path d="M14 6C14 3.23857 16.164 1 18.8333 1H38.1667C40.836 1 43 3.23857 43 6L43 13C43 15.7614 40.836 16 38.1667 16H18.8333C16.164 16 14 15.7614 14 13V6Z" fill="white"/>
<path d="M9.6001 83.0399C9.6001 81.7146 10.6746 80.6399 12.0001 80.6399H45.6001C46.9256 80.6399 48.0001 81.7146 48.0001 83.0399V93.5999C48.0001 94.9252 46.9256 95.9999 45.6001 95.9999H12.0001C10.6746 95.9999 9.6001 94.9252 9.6001 93.5999V83.0399Z" fill="#C2FF3F"/>
<path d="M9.6001 62.4C9.6001 61.0747 10.6746 60 12.0001 60H40.8001C42.1256 60 43.2001 61.0747 43.2001 62.4V72.96C43.2001 74.2853 42.1256 75.36 40.8001 75.36H12.0001C10.6746 75.36 9.6001 74.2853 9.6001 72.96V62.4Z" fill="#C2FF3F"/>
<path d="M9.6001 42.2401C9.6001 40.9146 10.6746 39.8401 12.0001 39.8401H45.6001C46.9256 39.8401 48.0001 40.9146 48.0001 42.2401V52.8001C48.0001 54.1254 46.9256 55.2001 45.6001 55.2001H12.0001C10.6746 55.2001 9.6001 54.1254 9.6001 52.8001V42.2401Z" fill="#C2FF3F"/>
<path d="M55.1999 28.7999V19.1999C55.1999 17.5999 55.1999 14.3999 50.3999 14.3999C46.5599 14.3999 21.5999 14.3999 7.1999 14.3999C5.59992 14.3999 2.3999 14.3999 2.3999 19.1999C2.3999 23.0399 2.3999 68.7997 2.3999 95.9999C2.3999 97.5997 2.3999 100.8 7.1999 100.8C11.0399 100.8 38.3999 100.8 52.7999 100.8C54.3997 100.8 57.5999 100.8 57.5999 95.9999" stroke="white" stroke-width="4"/>
<path d="M52.8 26.4C52.8 25.0745 53.8748 24 55.2 24C56.5253 24 57.6 25.0745 57.6 26.4V40.8C57.6 42.1255 56.5253 43.2 55.2 43.2C53.8748 43.2 52.8 42.1255 52.8 40.8V26.4Z" fill="white"/>
<path d="M81.6 26.4C81.6 25.0745 80.5255 24 79.2 24C77.8746 24 76.8 25.0745 76.8 26.4V40.8C76.8 42.1255 77.8746 43.2 79.2 43.2C80.5255 43.2 81.6 42.1255 81.6 40.8V26.4Z" fill="white"/>
<path fill-rule="evenodd" clip-rule="evenodd" d="M38.3999 98.5019V61.6719C38.3999 61.6719 38.3614 52.6187 49.9199 49.395C61.4783 46.1717 72.9426 46.3402 84.4799 49.395C96.0172 52.4502 95.9999 61.6719 95.9999 61.6719V98.5019C95.9999 98.5019 95.9999 104.64 84.4799 104.64H49.9199C38.3999 104.64 38.3999 98.5019 38.3999 98.5019ZM64.3197 65.7599C64.3197 60.1929 59.8067 55.6799 54.2397 55.6799C48.6726 55.6799 44.1597 60.1929 44.1597 65.7599C44.1597 71.327 48.6726 75.8399 54.2397 75.8399C59.8067 75.8399 64.3197 71.327 64.3197 65.7599ZM80.1606 55.6799C85.7276 55.6799 90.2406 60.1929 90.2406 65.7599C90.2406 71.327 85.7276 75.8399 80.1606 75.8399C74.5935 75.8399 70.0806 71.327 70.0806 65.7599C70.0806 60.1929 74.5935 55.6799 80.1606 55.6799Z" fill="white"/>
<path d="M84.4801 65.7599C84.4801 63.3741 82.546 61.4399 80.1601 61.4399C77.7742 61.4399 75.8401 63.3741 75.8401 65.7599C75.8401 68.1458 77.7742 70.0799 80.1601 70.0799C82.546 70.0799 84.4801 68.1458 84.4801 65.7599Z" fill="white"/>
<path d="M58.5599 65.7599C58.5599 63.3741 56.6258 61.4399 54.2399 61.4399C51.8541 61.4399 49.9199 63.3741 49.9199 65.7599C49.9199 68.1458 51.8541 70.0799 54.2399 70.0799C56.6258 70.0799 58.5599 68.1458 58.5599 65.7599Z" fill="white"/>
</svg>
